<svg width="122" height="40" viewBox="0 0 122 40" fill="none" xmlns="http://www.w3.org/2000/svg">
<path d="M112.285 0.00013H9.7208C9.34695 0.00013 8.97757 0.00013 8.6047 0.00212999C8.29258 0.00412999 7.98294 0.00993997 7.66782 0.01483C6.98322 0.0227317 6.30024 0.081806 5.6248 0.191539C4.95031 0.303662 4.29695 0.515044 3.68681 0.818537C3.07742 1.1246 2.52061 1.52229 2.03656 1.99719C1.54998 2.47076 1.14437 3.01814 0.835344 3.61828C0.525461 4.21723 0.310587 4.85905 0.198144 5.52159C0.0846314 6.1833 0.0235493 6.85263 0.0154457 7.52359C0.00598459 7.83018 0.00498546 8.1378 0 8.44444V31.5586C0.00498546 31.8691 0.00598459 32.1699 0.0154457 32.4805C0.0235518 33.1514 0.0846339 33.8207 0.198144 34.4824C0.310277 35.1453 0.525163 35.7875 0.835344 36.3867C1.14423 36.9849 1.5499 37.5301 2.03656 38.001C2.51877 38.478 3.07595 38.876 3.68681 39.1797C4.29694 39.484 4.95023 39.6967 5.6248 39.8105C6.30035 39.9194 6.98327 39.9785 7.66782 39.9873C7.98294 39.9941 8.29258 39.998 8.6047 39.998C8.97756 40 9.34697 40 9.7208 40H112.285C112.651 40 113.023 40 113.39 39.998C113.7 39.998 114.019 39.9941 114.33 39.9873C115.013 39.9789 115.695 39.9198 116.369 39.8105C117.046 39.6959 117.701 39.4833 118.314 39.1797C118.925 38.8758 119.481 38.4779 119.963 38.001C120.448 37.5282 120.855 36.9835 121.168 36.3867C121.476 35.7871 121.688 35.145 121.799 34.4824C121.913 33.8207 121.976 33.1515 121.988 32.4805C121.992 32.1699 121.992 31.8691 121.992 31.5586C122 31.1953 122 30.834 122 30.4648V9.53623C122 9.17002 122 8.80674 121.992 8.44444C121.992 8.1378 121.992 7.83018 121.988 7.52355C121.976 6.85253 121.913 6.18335 121.799 5.52155C121.688 4.8594 121.475 4.21762 121.168 3.61824C120.538 2.41532 119.54 1.43615 118.314 0.818447C117.701 0.515696 117.045 0.304369 116.369 0.191449C115.695 0.0812325 115.013 0.0221377 114.33 0.01469C114.019 0.00980997 113.7 0.00394999 113.39 0.00199999C113.023 0 112.651 0 112.285 0V0.00013Z" fill="#A6A6A6"/>
<path d="M8.70551 38.998C8.39545 38.998 8.09288 38.9941 7.78525 38.9874C7.14798 38.9793 6.51219 38.9251 5.88311 38.8254C5.29652 38.7267 4.72828 38.5433 4.19712 38.2811C3.67083 38.021 3.19081 37.68 2.77545 37.2712C2.35408 36.8671 2.00327 36.3985 1.73693 35.8839C1.46764 35.3659 1.28128 34.8107 1.18434 34.2376C1.07965 33.6218 1.023 32.9991 1.0149 32.3749C1.00845 32.1654 1 31.4678 1 31.4678V8.51947C1 8.51947 1.009 7.83262 1.01495 7.63083C1.02271 7.00764 1.07902 6.38594 1.1834 5.77109C1.28053 5.19642 1.46703 4.63961 1.73646 4.11994C2.00183 3.60566 2.35069 3.13669 2.76952 2.7312C3.18788 2.32186 3.66944 1.97911 4.19662 1.71547C4.72656 1.45408 5.29373 1.27193 5.87913 1.17511C6.51028 1.07434 7.14827 1.01986 7.78775 1.01213L8.70601 1H113.289L114.218 1.01262C114.852 1.01997 115.484 1.07396 116.109 1.17414C116.701 1.27217 117.274 1.45559 117.81 1.71838C118.866 2.2497 119.725 3.0903 120.268 4.12236C120.533 4.63845 120.716 5.19072 120.812 5.76042C120.918 6.38031 120.977 7.0069 120.989 7.6352C120.992 7.91653 120.992 8.21873 120.992 8.51947C121 8.892 121 9.24658 121 9.60407V30.3949C121 30.7558 121 31.1079 120.992 31.463C120.992 31.786 120.992 32.082 120.988 32.3866C120.976 33.0036 120.918 33.619 120.814 34.2278C120.719 34.8051 120.534 35.3646 120.265 35.8868C119.996 36.3959 119.648 36.8605 119.231 37.2634C118.815 37.6745 118.334 38.0175 117.807 38.2792C117.272 38.5434 116.7 38.7275 116.109 38.8254C115.48 38.9257 114.845 38.9798 114.207 38.9874C113.909 38.9941 113.597 38.998 113.294 38.998L112.191 39L8.70551 38.998Z" fill="black"/>
<path d="M24.0168 19.4224C24.0265 18.6713 24.226 17.9347 24.5968 17.2814C24.9677 16.628 25.4977 16.079 26.1377 15.6856C25.7311 15.1049 25.1948 14.6271 24.5712 14.29C23.9477 13.9529 23.2541 13.7658 22.5457 13.7437C21.0343 13.585 19.5692 14.648 18.799 14.648C18.014 14.648 16.8283 13.7594 15.5514 13.7857C14.7255 13.8124 13.9206 14.0526 13.2151 14.4828C12.5096 14.9131 11.9276 15.5187 11.5258 16.2408C9.78517 19.2544 11.0835 23.6833 12.7509 26.1193C13.5851 27.3121 14.56 28.6445 15.8357 28.5972C17.0841 28.5454 17.5503 27.8012 19.0572 27.8012C20.5501 27.8012 20.9875 28.5972 22.2891 28.5672C23.6286 28.5454 24.4726 27.3691 25.2775 26.165C25.8769 25.315 26.3381 24.3757 26.6441 23.3817C25.8659 23.0525 25.2017 22.5016 24.7345 21.7975C24.2673 21.0934 24.0177 20.2674 24.0168 19.4224Z" fill="white"/>
<path d="M21.5586 12.1416C22.289 11.2648 22.6488 10.1378 22.5617 9C21.4458 9.1172 20.4151 9.6505 19.6749 10.4936C19.3129 10.9055 19.0357 11.3847 18.8591 11.9038C18.6825 12.4229 18.6099 12.9717 18.6455 13.5189C19.2037 13.5246 19.7558 13.4037 20.2604 13.1651C20.765 12.9265 21.2089 12.5766 21.5586 12.1416Z" fill="white"/>
<path d="M46.0875 27.4259H41.8274L40.8044 30.4467H39L43.0351 19.2705H44.9098L48.9448 30.4467H47.1097L46.0875 27.4259ZM42.2686 26.032H45.6454L43.9808 21.1294H43.9342L42.2686 26.032Z" fill="white"/>
<path d="M57.6589 26.3733C57.6589 28.9054 56.3036 30.5323 54.2584 30.5323C53.7403 30.5594 53.2251 30.44 52.7717 30.1879C52.3183 29.9358 51.945 29.5611 51.6947 29.1067H51.656V33.1426H49.9834V22.2987H51.6024V23.6539H51.6331C51.895 23.2017 52.2745 22.829 52.7314 22.5753C53.1883 22.3216 53.7054 22.1966 54.2277 22.2134C56.2957 22.2134 57.6589 23.8482 57.6589 26.3733ZM55.9398 26.3733C55.9398 24.7236 55.0872 23.639 53.7864 23.639C52.5085 23.639 51.6489 24.7464 51.6489 26.3733C51.6489 28.0151 52.5085 29.1146 53.7864 29.1146C55.0872 29.1146 55.9398 28.0379 55.9398 26.3733Z" fill="white"/>
<path d="M66.6277 26.3733C66.6277 28.9054 65.2724 30.5323 63.2272 30.5323C62.7091 30.5594 62.1938 30.44 61.7404 30.1879C61.287 29.9358 60.9138 29.5611 60.6634 29.1067H60.6247V33.1426H58.9521V22.2987H60.5711V23.6539H60.6019C60.8637 23.2017 61.2433 22.829 61.7001 22.5753C62.157 22.3216 62.6741 22.1966 63.1964 22.2134C65.2645 22.2134 66.6277 23.8482 66.6277 26.3733ZM64.9085 26.3733C64.9085 24.7236 64.056 23.639 62.7552 23.639C61.4773 23.639 60.6177 24.7464 60.6177 26.3733C60.6177 28.0151 61.4773 29.1146 62.7552 29.1146C64.056 29.1146 64.9085 28.0379 64.9085 26.3733H64.9085Z" fill="white"/>
<path d="M72.5549 27.3326C72.6788 28.4409 73.7555 29.1686 75.2268 29.1686C76.6366 29.1686 77.6508 28.4408 77.6508 27.4415C77.6508 26.574 77.0391 26.0546 75.5906 25.6986L74.1422 25.3497C72.09 24.854 71.1372 23.8942 71.1372 22.3368C71.1372 20.4085 72.8177 19.084 75.2039 19.084C77.5655 19.084 79.1845 20.4085 79.239 22.3368H77.5506C77.4495 21.2215 76.5275 20.5482 75.1802 20.5482C73.8328 20.5482 72.9108 21.2294 72.9108 22.2208C72.9108 23.0109 73.4997 23.4759 74.9402 23.8318L76.1716 24.1342C78.4646 24.6764 79.4174 25.5976 79.4174 27.2323C79.4174 29.3232 77.7519 30.6328 75.1028 30.6328C72.6243 30.6328 70.9509 29.354 70.8428 27.3325L72.5549 27.3326Z" fill="white"/>
<path d="M83.0273 20.3701V22.2984H84.5768V23.623H83.0273V28.115C83.0273 28.8129 83.3376 29.1381 84.0187 29.1381C84.2027 29.1349 84.3863 29.122 84.5689 29.0994V30.416C84.2627 30.4732 83.9514 30.4991 83.6399 30.4933C81.9902 30.4933 81.3469 29.8737 81.3469 28.2934V23.623H80.1621V22.2984H81.3468V20.3701H83.0273Z" fill="white"/>
<path d="M85.4736 26.373C85.4736 23.8093 86.9836 22.1982 89.3382 22.1982C91.7007 22.1982 93.2036 23.8092 93.2036 26.373C93.2036 28.9439 91.7086 30.5478 89.3382 30.5478C86.9686 30.5478 85.4736 28.9438 85.4736 26.373ZM91.4994 26.373C91.4994 24.6144 90.6935 23.5764 89.3382 23.5764C87.9829 23.5764 87.1778 24.6223 87.1778 26.373C87.1778 28.1388 87.9829 29.1689 89.3382 29.1689C90.6935 29.1689 91.4994 28.1388 91.4994 26.373H91.4994Z" fill="white"/>
<path d="M94.583 22.2986H96.1782V23.6855H96.2169C96.3249 23.2523 96.5786 22.8695 96.9355 22.6014C97.2925 22.3333 97.7308 22.1963 98.1769 22.2133C98.3696 22.2127 98.5619 22.2336 98.7499 22.2757V23.8402C98.5066 23.7658 98.2528 23.7317 97.9984 23.7391C97.7555 23.7293 97.5132 23.7721 97.2884 23.8647C97.0635 23.9573 96.8613 24.0975 96.6958 24.2756C96.5302 24.4537 96.4051 24.6655 96.3291 24.8965C96.2532 25.1275 96.2281 25.3722 96.2556 25.6138V30.4469H94.583L94.583 22.2986Z" fill="white"/>
<path d="M106.462 28.0535C106.237 29.5327 104.796 30.5478 102.953 30.5478C100.583 30.5478 99.1113 28.9597 99.1113 26.4117C99.1113 23.8559 100.591 22.1982 102.883 22.1982C105.137 22.1982 106.555 23.7469 106.555 26.2175V26.7905H100.8V26.8916C100.773 27.1915 100.811 27.4936 100.91 27.7778C101.009 28.0621 101.168 28.322 101.375 28.5403C101.582 28.7586 101.834 28.9303 102.112 29.0439C102.391 29.1576 102.691 29.2107 102.992 29.1996C103.387 29.2366 103.784 29.1451 104.123 28.9386C104.462 28.7321 104.725 28.4217 104.873 28.0535L106.462 28.0535ZM100.808 25.6216H104.881C104.896 25.3519 104.855 25.0821 104.761 24.829C104.667 24.5759 104.522 24.3451 104.334 24.1509C104.146 23.9567 103.92 23.8034 103.671 23.7006C103.421 23.5978 103.153 23.5477 102.883 23.5535C102.61 23.5519 102.34 23.6042 102.088 23.7075C101.836 23.8108 101.607 23.9629 101.414 24.1552C101.221 24.3475 101.068 24.576 100.964 24.8277C100.86 25.0794 100.807 25.3492 100.808 25.6216V25.6216Z" fill="white"/>
<path d="M40.9397 7.85863C41.2904 7.83347 41.6423 7.88644 41.97 8.01373C42.2977 8.14102 42.593 8.33946 42.8348 8.59472C43.0765 8.84998 43.2585 9.15571 43.3678 9.48985C43.4771 9.824 43.5108 10.1782 43.4666 10.527C43.4666 12.2426 42.5394 13.2288 40.9397 13.2288H39V7.85863H40.9397ZM39.8341 12.4693H40.8466C41.0971 12.4843 41.3479 12.4432 41.5806 12.3491C41.8133 12.2549 42.022 12.1101 42.1917 11.9251C42.3613 11.7401 42.4876 11.5195 42.5612 11.2796C42.6349 11.0396 42.6542 10.7863 42.6176 10.5379C42.6515 10.2906 42.6303 10.0388 42.5555 9.80059C42.4807 9.56239 42.3541 9.34369 42.1849 9.16015C42.0156 8.97662 41.8079 8.83279 41.5765 8.73898C41.3451 8.64516 41.0959 8.60369 40.8466 8.61752H39.8341V12.4693Z" fill="white"/>
<path d="M44.4085 11.2004C44.383 10.9341 44.4134 10.6654 44.4979 10.4115C44.5824 10.1576 44.7189 9.92423 44.8989 9.72624C45.0788 9.52826 45.2982 9.37007 45.5428 9.26182C45.7875 9.15357 46.0521 9.09766 46.3196 9.09766C46.5872 9.09766 46.8518 9.15357 47.0964 9.26182C47.3411 9.37007 47.5604 9.52826 47.7404 9.72624C47.9203 9.92423 48.0569 10.1576 48.1414 10.4115C48.2258 10.6654 48.2563 10.9341 48.2308 11.2004C48.2568 11.467 48.2267 11.7361 48.1424 11.9904C48.0582 12.2446 47.9217 12.4785 47.7417 12.6768C47.5617 12.8752 47.3422 13.0337 47.0973 13.1422C46.8524 13.2507 46.5875 13.3067 46.3196 13.3067C46.0518 13.3067 45.7869 13.2507 45.542 13.1422C45.2971 13.0337 45.0775 12.8752 44.8976 12.6768C44.7176 12.4785 44.5811 12.2446 44.4968 11.9904C44.4126 11.7361 44.3825 11.467 44.4085 11.2004ZM47.4082 11.2004C47.4082 10.3219 47.0135 9.80821 46.321 9.80821C45.6257 9.80821 45.2347 10.3219 45.2347 11.2004C45.2347 12.0859 45.6258 12.5957 46.321 12.5957C47.0135 12.5957 47.4082 12.0824 47.4082 11.2004H47.4082Z" fill="white"/>
<path d="M53.3121 13.2284H52.4824L51.6448 10.2436H51.5815L50.7475 13.2284H49.9257L48.8086 9.17578H49.6198L50.3458 12.2682H50.4056L51.2388 9.17578H52.0061L52.8393 12.2682H52.9025L53.625 9.17578H54.4248L53.3121 13.2284Z" fill="white"/>
<path d="M55.3643 9.17597H56.1342V9.81976H56.1939C56.2953 9.58854 56.4663 9.3947 56.6831 9.26528C56.8999 9.13585 57.1517 9.07728 57.4033 9.09774C57.6005 9.08291 57.7985 9.11265 57.9827 9.18473C58.1668 9.25682 58.3323 9.36941 58.4671 9.51417C58.6018 9.65893 58.7022 9.83215 58.7609 10.021C58.8196 10.2098 58.835 10.4094 58.8061 10.6051V13.2286H58.0063V10.8059C58.0063 10.1546 57.7233 9.83075 57.1317 9.83075C56.9979 9.82452 56.8642 9.8473 56.74 9.89755C56.6157 9.9478 56.5038 10.0243 56.4119 10.1219C56.32 10.2194 56.2502 10.3357 56.2075 10.4627C56.1647 10.5897 56.1499 10.7245 56.1641 10.8578V13.2286H55.3643L55.3643 9.17597Z" fill="white"/>
<path d="M60.0811 7.59375H60.8809V13.2284H60.0811V7.59375Z" fill="white"/>
<path d="M61.9924 11.2005C61.967 10.9341 61.9974 10.6654 62.0819 10.4115C62.1664 10.1577 62.303 9.92424 62.483 9.72625C62.6629 9.52826 62.8823 9.37007 63.127 9.26182C63.3717 9.15357 63.6363 9.09766 63.9038 9.09766C64.1714 9.09766 64.436 9.15357 64.6807 9.26182C64.9253 9.37007 65.1447 9.52826 65.3247 9.72625C65.5046 9.92424 65.6412 10.1577 65.7257 10.4115C65.8102 10.6654 65.8407 10.9341 65.8152 11.2005C65.8411 11.4671 65.811 11.7362 65.7268 11.9904C65.6425 12.2447 65.506 12.4785 65.326 12.6769C65.1459 12.8753 64.9264 13.0338 64.6815 13.1423C64.4366 13.2507 64.1717 13.3068 63.9038 13.3068C63.6359 13.3068 63.371 13.2507 63.1261 13.1423C62.8812 13.0338 62.6617 12.8753 62.4817 12.6769C62.3017 12.4785 62.1651 12.2447 62.0809 11.9904C61.9966 11.7362 61.9665 11.4671 61.9924 11.2005ZM64.9921 11.2005C64.9921 10.322 64.5975 9.80829 63.9049 9.80829C63.2097 9.80829 62.8186 10.322 62.8186 11.2005C62.8186 12.086 63.2097 12.5957 63.9049 12.5957C64.5975 12.5957 64.9921 12.0825 64.9921 11.2005H64.9921Z" fill="white"/>
<path d="M66.6572 12.0824C66.6572 11.3529 67.2004 10.9324 68.1645 10.8726L69.2623 10.8093V10.4595C69.2623 10.0315 68.9793 9.78979 68.4326 9.78979C67.9861 9.78979 67.6768 9.95371 67.588 10.2402H66.8137C66.8954 9.54414 67.5502 9.09766 68.4695 9.09766C69.4855 9.09766 70.0586 9.60346 70.0586 10.4595V13.2285H69.2887V12.659H69.2254C69.0969 12.8633 68.9166 13.0298 68.7027 13.1416C68.4889 13.2534 68.2492 13.3064 68.0081 13.2953C67.838 13.313 67.666 13.2948 67.5033 13.242C67.3407 13.1892 67.1908 13.1028 67.0636 12.9886C66.9363 12.8743 66.8344 12.7346 66.7644 12.5785C66.6944 12.4225 66.6579 12.2535 66.6572 12.0824ZM69.2623 11.7361V11.3973L68.2727 11.4606C67.7145 11.4979 67.4614 11.6878 67.4614 12.0451C67.4614 12.4098 67.7778 12.6221 68.2129 12.6221C68.3404 12.635 68.4692 12.6221 68.5916 12.5842C68.714 12.5463 68.8275 12.4842 68.9254 12.4016C69.0233 12.3189 69.1036 12.2174 69.1615 12.1031C69.2194 11.9888 69.2536 11.864 69.2623 11.7361Z" fill="white"/>
<path d="M71.1094 11.2004C71.1094 9.91979 71.7677 9.10856 72.7916 9.10856C73.0449 9.09689 73.2962 9.15755 73.5163 9.28346C73.7364 9.40936 73.9161 9.59531 74.0344 9.81956H74.0941V7.59375H74.8939V13.2284H74.1275V12.5881H74.0643C73.9368 12.8109 73.7509 12.9945 73.5265 13.1191C73.3022 13.2438 73.0481 13.3047 72.7916 13.2952C71.7606 13.2952 71.1094 12.484 71.1094 11.2004ZM71.9356 11.2004C71.9356 12.0599 72.3408 12.5772 73.0184 12.5772C73.6925 12.5772 74.1091 12.0525 74.1091 11.2039C74.1091 10.3592 73.6881 9.82706 73.0184 9.82706C72.3451 9.82706 71.9355 10.3478 71.9355 11.2004H71.9356Z" fill="white"/>
<path d="M78.2034 11.2004C78.1779 10.9341 78.2084 10.6654 78.2928 10.4115C78.3773 10.1576 78.5139 9.92423 78.6938 9.72624C78.8738 9.52826 79.0931 9.37007 79.3378 9.26182C79.5824 9.15357 79.847 9.09766 80.1146 9.09766C80.3821 9.09766 80.6467 9.15357 80.8914 9.26182C81.136 9.37007 81.3554 9.52826 81.5353 9.72624C81.7153 9.92423 81.8518 10.1576 81.9363 10.4115C82.0207 10.6654 82.0512 10.9341 82.0257 11.2004C82.0517 11.467 82.0216 11.7361 81.9374 11.9904C81.8531 12.2446 81.7166 12.4785 81.5366 12.6768C81.3566 12.8752 81.1371 13.0337 80.8922 13.1422C80.6473 13.2507 80.3824 13.3067 80.1146 13.3067C79.8467 13.3067 79.5818 13.2507 79.3369 13.1422C79.092 13.0337 78.8725 12.8752 78.6925 12.6768C78.5125 12.4785 78.376 12.2446 78.2917 11.9904C78.2075 11.7361 78.1774 11.467 78.2034 11.2004ZM81.2031 11.2004C81.2031 10.3219 80.8084 9.80821 80.1159 9.80821C79.4207 9.80821 79.0296 10.3219 79.0296 11.2004C79.0296 12.0859 79.4207 12.5957 80.1159 12.5957C80.8085 12.5957 81.2031 12.0824 81.2031 11.2004Z" fill="white"/>
<path d="M83.0986 9.17597H83.8686V9.81976H83.9283C84.0297 9.58854 84.2007 9.3947 84.4175 9.26528C84.6343 9.13585 84.8861 9.07728 85.1377 9.09774C85.3349 9.08291 85.5329 9.11265 85.717 9.18473C85.9012 9.25682 86.0667 9.36941 86.2014 9.51417C86.3362 9.65893 86.4366 9.83215 86.4953 10.021C86.5539 10.2098 86.5694 10.4094 86.5404 10.6051V13.2286H85.7406V10.8059C85.7406 10.1546 85.4576 9.83075 84.8661 9.83075C84.7322 9.82452 84.5986 9.8473 84.4743 9.89755C84.3501 9.9478 84.2382 10.0243 84.1463 10.1219C84.0543 10.2194 83.9846 10.3357 83.9418 10.4627C83.8991 10.5897 83.8843 10.7245 83.8984 10.8578V13.2286H83.0986V9.17597Z" fill="white"/>
<path d="M91.0603 8.16699V9.19443H91.9383V9.86812H91.0603V11.952C91.0603 12.3765 91.2352 12.5624 91.6333 12.5624C91.7352 12.5621 91.8371 12.5559 91.9383 12.5439V13.2102C91.7947 13.2358 91.6491 13.2495 91.5032 13.251C90.6138 13.251 90.2596 12.9381 90.2596 12.1568V9.86808H89.6162V9.1944H90.2596V8.16699H91.0603Z" fill="white"/>
<path d="M93.0303 7.59375H93.823V9.82705H93.8863C93.9926 9.59367 94.1683 9.39873 94.3895 9.26882C94.6106 9.13891 94.8664 9.08033 95.122 9.10108C95.3182 9.0904 95.5143 9.12315 95.6963 9.19699C95.8784 9.27083 96.0419 9.38394 96.1752 9.52824C96.3085 9.67254 96.4083 9.84449 96.4675 10.0318C96.5268 10.2191 96.5439 10.4172 96.5177 10.6119V13.2284H95.7171V10.8092C95.7171 10.1619 95.4156 9.83407 94.8505 9.83407C94.7131 9.8228 94.5748 9.8417 94.4454 9.88945C94.316 9.93719 94.1986 10.0126 94.1014 10.1105C94.0042 10.2084 93.9296 10.3263 93.8827 10.456C93.8358 10.5857 93.8179 10.7241 93.8301 10.8615V13.2284H93.0303L93.0303 7.59375Z" fill="white"/>
<path d="M101.182 12.1343C101.073 12.5047 100.837 12.8251 100.516 13.0394C100.195 13.2538 99.8092 13.3484 99.4255 13.3068C99.1585 13.3138 98.8932 13.2627 98.6479 13.1569C98.4027 13.0512 98.1834 12.8933 98.0052 12.6943C97.8271 12.4952 97.6944 12.2598 97.6164 12.0044C97.5384 11.749 97.5169 11.4796 97.5534 11.215C97.5179 10.9496 97.5397 10.6797 97.6176 10.4235C97.6954 10.1673 97.8274 9.93077 98.0046 9.73001C98.1818 9.52924 98.4 9.36889 98.6445 9.2598C98.8891 9.15071 99.1542 9.09544 99.422 9.09772C100.55 9.09772 101.23 9.86812 101.23 11.1407V11.4198H98.3682V11.4646C98.3556 11.6133 98.3743 11.763 98.423 11.9041C98.4718 12.0452 98.5494 12.1745 98.651 12.2838C98.7526 12.3932 98.876 12.48 99.0131 12.5389C99.1503 12.5977 99.2982 12.6273 99.4475 12.6256C99.6388 12.6486 99.8326 12.6141 100.004 12.5267C100.176 12.4392 100.318 12.3026 100.412 12.1343L101.182 12.1343ZM98.3681 10.8283H100.415C100.425 10.6923 100.407 10.5557 100.361 10.4272C100.315 10.2988 100.243 10.1813 100.149 10.0825C100.055 9.98359 99.9413 9.90546 99.8153 9.8531C99.6894 9.80075 99.5539 9.77531 99.4175 9.77844C99.2792 9.7767 99.1419 9.80267 99.0138 9.85482C98.8857 9.90697 98.7693 9.98425 98.6715 10.0821C98.5737 10.1799 98.4965 10.2964 98.4444 10.4245C98.3923 10.5527 98.3664 10.69 98.3682 10.8283H98.3681Z" fill="white"/>
</svg>
