<svg width="24" height="24" viewBox="0 0 24 24" fill="none" xmlns="http://www.w3.org/2000/svg">
<path fill-rule="evenodd" clip-rule="evenodd" d="M16.5 3H7.50001C5.01472 3 3 5.01472 3 7.50001V16.5C3 18.9853 5.01472 21 7.50001 21H16.5C18.9853 21 21 18.9853 21 16.5V7.50001C21 5.01472 18.9853 3 16.5 3ZM12.4398 9.24765C11.8692 9.16303 11.2863 9.26051 10.7742 9.52622C10.2621 9.79194 9.84687 10.2124 9.58749 10.7277C9.32811 11.243 9.23783 11.827 9.32948 12.3966C9.42114 12.9662 9.69007 13.4924 10.098 13.9003C10.506 14.3083 11.0322 14.5772 11.6018 14.6689C12.1714 14.7605 12.7553 14.6703 13.2707 14.4109C13.786 14.1515 14.2064 13.7362 14.4721 13.2241C14.7379 12.712 14.8353 12.1292 14.7507 11.5585C14.6644 10.9764 14.3931 10.4375 13.977 10.0214C13.5609 9.60523 13.022 9.33398 12.4398 9.24765ZM9.98468 8.00458C10.8168 7.5728 11.7639 7.4144 12.6913 7.55191C13.6372 7.69218 14.513 8.13297 15.1892 8.80917C15.8654 9.48537 16.3062 10.3611 16.4465 11.3071C16.584 12.2344 16.4256 13.1815 15.9938 14.0137C15.562 14.8458 14.8788 15.5206 14.0414 15.9421C13.204 16.3636 12.255 16.5103 11.3294 16.3614C10.4038 16.2125 9.54874 15.7754 8.88583 15.1125C8.22292 14.4496 7.78591 13.5946 7.63697 12.669C7.48803 11.7434 7.63474 10.7944 8.05623 9.95696C8.47772 9.11955 9.15253 8.43637 9.98468 8.00458ZM16.9453 6.19315C16.4719 6.19315 16.0882 6.57691 16.0882 7.05029C16.0882 7.52368 16.4719 7.90744 16.9453 7.90744H16.9543C17.4277 7.90744 17.8114 7.52368 17.8114 7.05029C17.8114 6.57691 17.4277 6.19315 16.9543 6.19315H16.9453Z" fill="#0D2122"/>
</svg>
