<svg width="24" height="24" viewBox="0 0 24 24" fill="none" xmlns="http://www.w3.org/2000/svg">
<path d="M20.28 3H3.72C3.32175 3 3 3.32175 3 3.72V20.28C3 20.6783 3.32175 21 3.72 21H20.28C20.6783 21 21 20.6783 21 20.28V3.72C21 3.32175 20.6783 3 20.28 3ZM8.33925 18.3383H5.6685V9.74775H8.33925V18.3383ZM7.005 8.57325C6.69883 8.57325 6.39954 8.48246 6.14498 8.31237C5.89041 8.14227 5.692 7.9005 5.57483 7.61764C5.45767 7.33478 5.42701 7.02353 5.48674 6.72325C5.54647 6.42297 5.69391 6.14714 5.9104 5.93065C6.12689 5.71416 6.40272 5.56672 6.703 5.50699C7.00328 5.44726 7.31453 5.47792 7.59739 5.59508C7.88025 5.71225 8.12202 5.91066 8.29212 6.16523C8.46221 6.41979 8.553 6.71908 8.553 7.02525C8.55075 7.88025 7.85775 8.57325 7.005 8.57325ZM18.3383 18.3383H15.6698V14.16C15.6698 13.1632 15.6518 11.883 14.2815 11.883C12.8933 11.883 12.6795 12.9675 12.6795 14.088V18.3383H10.0133V9.74775H12.5738V10.9223H12.6097C12.9653 10.2473 13.836 9.534 15.1365 9.534C17.841 9.534 18.3383 11.3138 18.3383 13.6267V18.3383Z" fill="#0D2122"/>
</svg>
