<svg width="72" height="36" viewBox="0 0 72 36" fill="none" xmlns="http://www.w3.org/2000/svg">
<path d="M70 0H2C0.89543 0 0 0.89543 0 2V34C0 35.1046 0.89543 36 2 36H70C71.1046 36 72 35.1046 72 34V2C72 0.89543 71.1046 0 70 0Z" fill="white"/>
<path d="M70 0.5H2C1.17157 0.5 0.5 1.17157 0.5 2V34C0.5 34.8284 1.17157 35.5 2 35.5H70C70.8284 35.5 71.5 34.8284 71.5 34V2C71.5 1.17157 70.8284 0.5 70 0.5Z" stroke="#E0E0E0"/>
<path d="M9.43621 24.5038H9.84327L9.46206 26.0868C9.40391 26.3194 9.41683 26.5003 9.49436 26.6166C9.5719 26.7329 9.71404 26.791 9.92726 26.791C10.134 26.791 10.3085 26.7329 10.4442 26.6166C10.5798 26.5003 10.6703 26.3194 10.7285 26.0868L11.1097 24.5038H11.5232L11.1355 26.1255C11.0515 26.4744 10.9029 26.7393 10.6832 26.9138C10.47 27.0882 10.1857 27.1787 9.83681 27.1787C9.4879 27.1787 9.24884 27.0947 9.11961 26.9203C8.99039 26.7458 8.96455 26.4809 9.04854 26.132L9.43621 24.5038V24.5038ZM11.465 27.1076L12.1111 24.4004L13.3388 25.9898C13.3711 26.0351 13.4034 26.0803 13.4357 26.132C13.468 26.1837 13.5003 26.2418 13.5391 26.3064L13.972 24.5038H14.3532L13.7071 27.2045L12.4536 25.5828L12.3567 25.4471C12.3244 25.3954 12.2985 25.3502 12.2791 25.292L11.8462 27.1012H11.465V27.1076ZM14.3209 27.1076L14.9412 24.5038H15.3547L14.7344 27.1076H14.3209ZM15.3224 27.1076L15.9426 24.5038H17.3576L17.2736 24.8656H16.2722L16.1171 25.5117H17.1186L17.0281 25.88H16.0266L15.7359 27.1012H15.3224V27.1076ZM17.1961 27.1076L17.8164 24.5038H18.2299L17.6096 27.1076H17.1961ZM18.1976 27.1076L18.8179 24.5038H20.2329L20.1489 24.8656H19.1474L18.9923 25.5182H19.9938L19.9034 25.8865H18.9019L18.7016 26.7264H19.7031L19.6126 27.1076H18.1976ZM20.0907 27.1076L20.711 24.5038H21.2667C21.6285 24.5038 21.8805 24.5232 22.0162 24.5619C22.1518 24.6007 22.2681 24.6588 22.3586 24.7493C22.4749 24.8656 22.5524 25.0142 22.5847 25.1887C22.6171 25.3696 22.6041 25.5763 22.5524 25.8025C22.4943 26.0351 22.4103 26.2354 22.294 26.4163C22.1777 26.5972 22.0291 26.7393 21.8546 26.8556C21.7254 26.9461 21.5833 27.0042 21.4282 27.043C21.2796 27.0818 21.0534 27.1012 20.7562 27.1012H20.0907V27.1076ZM20.5947 26.72H20.9436C21.131 26.72 21.2796 26.707 21.383 26.6812C21.4863 26.6553 21.5768 26.6101 21.6608 26.552C21.7771 26.468 21.874 26.3646 21.9515 26.2354C22.0291 26.1126 22.0872 25.964 22.126 25.796C22.1648 25.628 22.1777 25.4859 22.1583 25.3631C22.1389 25.2403 22.0937 25.1305 22.0162 25.0465C21.958 24.9819 21.8869 24.9431 21.79 24.9173C21.6931 24.8914 21.5445 24.8785 21.3313 24.8785H21.0341L20.5947 26.72V26.72ZM24.452 25.9382L24.1742 27.1076H23.7865L24.4068 24.5038H25.0335C25.2209 24.5038 25.3501 24.5167 25.4341 24.5361C25.5181 24.5555 25.5827 24.5878 25.6344 24.6395C25.699 24.6976 25.7443 24.7816 25.7637 24.885C25.783 24.9884 25.7766 25.0982 25.7507 25.221C25.7184 25.3437 25.6732 25.46 25.6021 25.5634C25.5311 25.6668 25.4471 25.7508 25.3566 25.8089C25.2791 25.8542 25.1951 25.8929 25.1046 25.9123C25.0142 25.9317 24.872 25.9446 24.6911 25.9446H24.452V25.9382ZM24.5619 25.5892H24.6653C24.8914 25.5892 25.0529 25.5634 25.1434 25.5117C25.2338 25.46 25.292 25.3696 25.3243 25.2403C25.3566 25.1047 25.3372 25.0013 25.2726 24.9496C25.2015 24.8914 25.0594 24.8656 24.8462 24.8656H24.7428L24.5619 25.5892ZM27.1528 27.1076L27.0236 26.4357H26.0156L25.5634 27.1076H25.1305L27.0042 24.4004L27.5857 27.1076H27.1528ZM26.2612 26.0803H26.9654L26.8491 25.4859C26.8427 25.4471 26.8362 25.4019 26.8362 25.3566C26.8298 25.305 26.8298 25.2533 26.8298 25.1951C26.8039 25.2533 26.7781 25.305 26.7458 25.3566C26.7199 25.4083 26.6941 25.4536 26.6682 25.4923L26.2612 26.0803V26.0803ZM28.1801 27.1076L28.4644 25.9188L27.9475 24.5102H28.3804L28.7035 25.3954C28.71 25.4213 28.7164 25.4471 28.7293 25.4859C28.7423 25.5246 28.7487 25.5634 28.7617 25.6022L28.8392 25.4859C28.865 25.4471 28.8909 25.4148 28.9167 25.3825L29.6727 24.5102H30.0862L28.878 25.9123L28.5937 27.1012H28.1801V27.1076ZM32.115 25.8219C32.115 25.8025 32.1215 25.7443 32.1344 25.6539C32.1409 25.5763 32.1473 25.5182 32.1538 25.4665C32.1279 25.5246 32.1021 25.5828 32.0698 25.6474C32.0375 25.7056 31.9987 25.7702 31.9535 25.8283L30.9585 27.2175L30.6354 25.8025C30.6225 25.7443 30.6096 25.6862 30.6031 25.6345C30.5966 25.5828 30.5902 25.5246 30.5902 25.4729C30.5772 25.5246 30.5579 25.5828 30.5385 25.6474C30.5191 25.7056 30.4932 25.7702 30.4609 25.8348L29.8794 27.1141H29.4982L30.7452 24.4004L31.1006 26.0415C31.1071 26.0674 31.1135 26.1126 31.12 26.1708C31.1264 26.2289 31.1394 26.3064 31.1523 26.3969C31.1975 26.3194 31.2557 26.2289 31.3332 26.1126C31.3526 26.0803 31.372 26.0609 31.3784 26.0415L32.5027 24.4004L32.4639 27.1141H32.0827L32.115 25.8219V25.8219ZM32.7999 27.1076L33.4202 24.5038H34.8352L34.7512 24.8656H33.7497L33.5946 25.5182H34.5961L34.5057 25.8865H33.5042L33.3039 26.7264H34.3054L34.2149 27.1076H32.7999V27.1076ZM34.6866 27.1076L35.3327 24.4004L36.5603 25.9898C36.5926 26.0351 36.6249 26.0803 36.6572 26.132C36.6895 26.1837 36.7218 26.2418 36.7606 26.3064L37.1935 24.5038H37.5747L36.9286 27.2045L35.6751 25.5828L35.5782 25.4471C35.5459 25.3954 35.5201 25.3502 35.5007 25.292L35.0678 27.1012H34.6866V27.1076ZM38.8928 24.8591L38.3565 27.1012H37.943L38.4793 24.8591H37.8073L37.8913 24.4973H39.6488L39.5648 24.8591H38.8928ZM39.3257 26.5843L39.694 26.4292C39.7005 26.5455 39.7328 26.636 39.8038 26.6941C39.8749 26.7523 39.9718 26.7846 40.101 26.7846C40.2238 26.7846 40.3272 26.7523 40.4176 26.6812C40.5081 26.6101 40.5663 26.5197 40.5921 26.4034C40.6309 26.2483 40.5404 26.1126 40.3207 25.9963C40.2884 25.9769 40.269 25.964 40.2497 25.9575C40.0041 25.8154 39.8491 25.6926 39.7844 25.5763C39.7198 25.46 39.7069 25.3243 39.7457 25.1628C39.7974 24.9496 39.9072 24.7816 40.0817 24.6459C40.2561 24.5167 40.45 24.4456 40.6826 24.4456C40.8699 24.4456 41.0185 24.4844 41.1284 24.5555C41.2382 24.6265 41.2964 24.7364 41.3158 24.8721L40.9539 25.04C40.9216 24.9561 40.8829 24.8979 40.8312 24.8591C40.7795 24.8204 40.7149 24.801 40.6373 24.801C40.5275 24.801 40.4306 24.8333 40.353 24.8914C40.2755 24.9496 40.2238 25.0271 40.198 25.1305C40.1592 25.2856 40.269 25.4342 40.521 25.5699C40.5404 25.5828 40.5533 25.5892 40.5663 25.5957C40.7859 25.712 40.9345 25.8283 40.9992 25.9446C41.0638 26.0609 41.0767 26.1966 41.0379 26.3711C40.9798 26.6166 40.857 26.8104 40.6696 26.959C40.4823 27.1012 40.2626 27.1787 40.0041 27.1787C39.7909 27.1787 39.6229 27.127 39.5066 27.0236C39.3774 26.9203 39.3192 26.7716 39.3257 26.5843V26.5843ZM42.3689 27.1076L42.9892 24.5038H43.4027L42.7824 27.1076H42.3689ZM43.3769 27.1076L44.023 24.4004L45.2506 25.9898C45.2829 26.0351 45.3152 26.0803 45.3475 26.132C45.3798 26.1837 45.4122 26.2418 45.4509 26.3064L45.8838 24.5038H46.265L45.6189 27.2045L44.3654 25.5828L44.2685 25.4471C44.2362 25.3954 44.2104 25.3502 44.191 25.292L43.7581 27.1012H43.3769V27.1076ZM47.5831 24.8591L47.0468 27.1012H46.6333L47.1696 24.8591H46.4976L46.5816 24.4973H48.3391L48.2551 24.8591H47.5831V24.8591ZM48.0289 27.1076L48.6492 24.5038H50.0707L49.9867 24.8656H48.9852L48.8301 25.5182H49.8316L49.7412 25.8865H48.7397L48.5394 26.7264H49.5409L49.4504 27.1076H48.0289V27.1076ZM50.5811 25.9382L50.3033 27.1012H49.9156L50.5359 24.4973H51.1109C51.2789 24.4973 51.4081 24.5102 51.4921 24.5296C51.5826 24.549 51.6537 24.5878 51.7054 24.6395C51.77 24.7041 51.8087 24.7816 51.8281 24.885C51.8475 24.9819 51.841 25.0917 51.8152 25.2145C51.7635 25.4213 51.6795 25.5892 51.5503 25.7055C51.4211 25.8219 51.2595 25.8929 51.0657 25.9188L51.6537 27.1012H51.1885L50.6263 25.9382H50.5811V25.9382ZM50.6845 25.6086H50.762C50.9817 25.6086 51.1303 25.5828 51.2143 25.5311C51.2983 25.4794 51.3565 25.389 51.3888 25.2533C51.4211 25.1111 51.4081 25.0077 51.3435 24.9496C51.2789 24.8914 51.1432 24.8591 50.9365 24.8591H50.8589L50.6845 25.6086V25.6086ZM51.9057 27.1076L52.5259 24.5038H53.9409L53.8569 24.8656H52.8554L52.7004 25.5117H53.7019L53.6114 25.88H52.6099L52.3192 27.1012H51.9057V27.1076ZM55.3172 27.1076L55.1879 26.4357H54.18L53.7277 27.1076H53.2948L55.1686 24.4004L55.7501 27.1076H55.3172V27.1076ZM54.4191 26.0803H55.1233L55.007 25.4859C55.0006 25.4471 54.9941 25.4019 54.9941 25.3566C54.9876 25.305 54.9876 25.2533 54.9876 25.1951C54.9618 25.2533 54.936 25.305 54.9036 25.3566C54.8778 25.4083 54.852 25.4536 54.8261 25.4923L54.4191 26.0803V26.0803ZM58.4379 25.137C58.3475 25.0336 58.2376 24.9561 58.1213 24.9108C58.005 24.8591 57.8758 24.8333 57.7272 24.8333C57.4494 24.8333 57.2038 24.9237 56.9842 25.1047C56.7645 25.2856 56.6223 25.5246 56.5513 25.8154C56.4866 26.0932 56.5125 26.3258 56.6417 26.5132C56.7645 26.6941 56.9583 26.7846 57.2168 26.7846C57.3654 26.7846 57.514 26.7587 57.6626 26.7006C57.8112 26.6489 57.9598 26.5649 58.1149 26.455L57.9986 26.9332C57.8693 27.0172 57.7337 27.0753 57.5915 27.1141C57.4494 27.1529 57.3072 27.1722 57.1521 27.1722C56.9583 27.1722 56.7839 27.1399 56.6352 27.0753C56.4866 27.0107 56.3639 26.9138 56.267 26.7846C56.17 26.6618 56.1119 26.5132 56.086 26.3452C56.0602 26.1772 56.0667 25.9963 56.1184 25.8025C56.1636 25.6086 56.2411 25.4342 56.3445 25.2662C56.4479 25.0982 56.5836 24.9496 56.7386 24.8268C56.8937 24.6976 57.0617 24.6007 57.2426 24.5361C57.4235 24.4715 57.6044 24.4392 57.7918 24.4392C57.9404 24.4392 58.0761 24.4585 58.2053 24.5038C58.3281 24.549 58.4444 24.6136 58.5478 24.7041L58.4379 25.137V25.137ZM58.4767 27.1076L59.097 24.5038H60.512L60.428 24.8656H59.4265L59.2714 25.5182H60.2729L60.1824 25.8865H59.181L58.9807 26.7264H59.9822L59.8917 27.1076H58.4767V27.1076Z" fill="#3D3D3C"/>
<path d="M50.956 22.234H48.1195L52.0609 8H54.8973L50.956 22.234ZM49.4829 8.44582C49.289 8.17445 48.9853 8.03877 48.5718 8.03877H32.9874L32.2186 10.83H46.3944L45.5674 13.8086H34.228V13.8021H31.3915L29.0397 22.2986H31.8761L33.4526 16.5998H46.2006C46.6012 16.5998 46.9759 16.4642 47.3248 16.1928C47.6737 15.9214 47.9063 15.5854 48.0162 15.1848L49.5927 9.48607C49.7155 9.05964 49.6767 8.71719 49.4829 8.44582V8.44582ZM27.3856 21.3424C27.2305 21.9045 26.7136 22.2986 26.1321 22.2986H11.5104C11.1098 22.2986 10.8126 22.1629 10.6188 21.8916C10.425 21.6202 10.3797 21.2842 10.496 20.8836L14.0626 8.03877H16.8991L13.7137 19.5138H25.0596L28.2449 8.03877H31.0814L27.3856 21.3424Z" fill="#70706E"/>
<path d="M59.7941 8.02637L63.3801 15.1595L55.8398 22.2927L59.7941 8.02637Z" fill="#098041"/>
<path d="M57.2752 8.02637L60.8611 15.1595L53.3145 22.2927L57.2752 8.02637Z" fill="#E97626"/>
</svg>
