<svg width="72" height="36" viewBox="0 0 72 36" fill="none" xmlns="http://www.w3.org/2000/svg">
<path d="M70 0H2C0.89543 0 0 0.89543 0 2V34C0 35.1046 0.89543 36 2 36H70C71.1046 36 72 35.1046 72 34V2C72 0.89543 71.1046 0 70 0Z" fill="white"/>
<path d="M70 0.5H2C1.17157 0.5 0.5 1.17157 0.5 2V34C0.5 34.8284 1.17157 35.5 2 35.5H70C70.8284 35.5 71.5 34.8284 71.5 34V2C71.5 1.17157 70.8284 0.5 70 0.5Z" stroke="#E0E0E0"/>
<path d="M27.6001 25.1769L30.0381 11.4629H33.8481L31.4861 25.1769H27.6001Z" fill="#3C58BF"/>
<path d="M27.6001 25.1769L30.7241 11.4629H33.8481L31.4861 25.1769H27.6001Z" fill="#293688"/>
<path d="M45.276 11.6098C44.1571 11.1919 42.9703 10.985 41.776 10.9998C37.966 10.9998 35.224 12.8998 35.224 15.6478C35.224 17.7048 37.124 18.7718 38.653 19.4578C40.182 20.1438 40.634 20.6008 40.634 21.2098C40.634 22.1238 39.415 22.5808 38.348 22.5808C37.0869 22.6086 35.8361 22.348 34.691 21.8188L34.158 21.5898L33.625 24.7138C35.0153 25.2261 36.4864 25.4842 37.968 25.4758C42.006 25.4758 44.668 23.5758 44.668 20.6758C44.668 19.0758 43.678 17.8568 41.392 16.8658C40.021 16.1798 39.182 15.7988 39.182 15.1138C39.182 14.5038 39.868 13.8948 41.392 13.8948C42.3856 13.8641 43.3742 14.0458 44.292 14.4278L44.673 14.5798L45.283 11.6088L45.276 11.6098Z" fill="#3C58BF"/>
<path d="M45.276 11.6098C44.1571 11.1919 42.9704 10.985 41.776 10.9998C37.966 10.9998 35.909 12.8998 35.909 15.6478C35.9037 16.4915 36.1665 17.3151 36.6595 17.9998C37.1525 18.6846 37.8502 19.1951 38.652 19.4578C40.176 20.1438 40.633 20.6008 40.633 21.2098C40.633 22.1238 39.414 22.5808 38.347 22.5808C37.0859 22.6086 35.8351 22.348 34.69 21.8188L34.157 21.5898L33.624 24.7138C35.0143 25.2261 36.4854 25.4842 37.967 25.4758C42.005 25.4758 44.667 23.5758 44.667 20.6758C44.667 19.0758 43.677 17.8568 41.391 16.8658C40.02 16.1798 39.181 15.7988 39.181 15.1138C39.181 14.5038 39.867 13.8948 41.391 13.8948C42.3846 13.8641 43.3733 14.0458 44.291 14.4278L44.672 14.5798L45.282 11.6088L45.276 11.6098Z" fill="#293688"/>
<path d="M51.8288 11.458C50.9148 11.458 50.2288 11.534 49.8478 12.448L44.1328 25.177H48.2468L49.0088 22.891H53.8848L54.3418 25.177H57.9998L54.7998 11.458H51.8288ZM50.0768 20.601C50.3058 19.915 51.6008 16.563 51.6008 16.563C51.6008 16.563 51.9008 15.725 52.1338 15.192L52.3628 16.492C52.3628 16.492 53.1248 19.921 53.2768 20.682H50.0768V20.601Z" fill="#3C58BF"/>
<path d="M52.7428 11.458C51.8288 11.458 51.1428 11.534 50.7618 12.448L44.1328 25.177H48.2468L49.0088 22.891H53.8848L54.3418 25.177H57.9998L54.7998 11.458H52.7428ZM50.0758 20.601C50.3758 19.839 51.5998 16.563 51.5998 16.563C51.5998 16.563 51.8998 15.725 52.1328 15.192L52.3618 16.492C52.3618 16.492 53.1238 19.921 53.2758 20.682H50.0758V20.601Z" fill="#293688"/>
<path d="M20.59 21.0582L20.21 19.0772C19.2518 16.472 17.3478 14.3231 14.877 13.0582L18.3 25.2482H22.414L28.59 11.5342H24.476L20.59 21.0582Z" fill="#3C58BF"/>
<path d="M20.59 21.0582L20.21 19.0772C19.2518 16.472 17.3478 14.3231 14.877 13.0582L18.3 25.2482H22.414L28.59 11.5342H25.238L20.59 21.0582Z" fill="#293688"/>
<path d="M10 11.458L10.686 11.61C15.562 12.753 18.915 15.648 20.21 19.077L18.838 12.601C18.609 11.687 17.924 11.458 17.086 11.458H10Z" fill="#FFBC00"/>
<path d="M10 11.458C14.876 12.601 18.914 15.572 20.21 19.001L18.91 13.591C18.816 13.1772 18.5834 12.808 18.2507 12.5446C17.918 12.2813 17.5053 12.1395 17.081 12.143L10 11.458Z" fill="#F7981D"/>
<path d="M10 11.458C14.876 12.601 18.914 15.572 20.21 19.001L19.3 16.029C19.2549 15.5513 19.0827 15.0945 18.8014 14.7058C18.52 14.3172 18.1397 14.011 17.7 13.819L10 11.458Z" fill="#ED7C00"/>
<path d="M24.4001 20.6006L21.8101 18.0106L20.5911 20.9106L20.2911 19.0106C19.3347 16.3987 17.4281 14.2439 14.9521 12.9766L18.3811 25.1766H22.5001L24.4001 20.6006Z" fill="#051244"/>
<path d="M31.4861 25.1763L28.2101 21.8193L27.6001 25.1763H31.4861Z" fill="#051244"/>
<path d="M40.2481 20.4473C40.5481 20.7473 40.7051 20.9803 40.6291 21.2853C40.6291 22.1993 39.4101 22.6563 38.3431 22.6563C37.082 22.6841 35.8312 22.4235 34.6861 21.8943L34.1531 21.6653L33.6201 24.7893C35.0104 25.3016 36.4815 25.5598 37.9631 25.5513C38.9702 25.6229 39.9814 25.4916 40.9368 25.1652C41.8922 24.8388 42.7723 24.324 43.5251 23.6513L40.2481 20.4473Z" fill="#051244"/>
<path d="M44.667 25.1763H48.248L49.01 22.8903H53.886L54.343 25.1763H58L56.7 19.6143L52.129 15.1953L52.358 16.4143C52.358 16.4143 53.12 19.8433 53.272 20.6043H50.072C50.372 19.8423 51.596 16.5663 51.596 16.5663C51.596 16.5663 51.896 15.7283 52.129 15.1953" fill="#051244"/>
</svg>
