<svg width="72" height="36" viewBox="0 0 72 36" fill="none" xmlns="http://www.w3.org/2000/svg">
<path d="M70 0H2C0.89543 0 0 0.89543 0 2V34C0 35.1046 0.89543 36 2 36H70C71.1046 36 72 35.1046 72 34V2C72 0.89543 71.1046 0 70 0Z" fill="white"/>
<path d="M70 0.5H2C1.17157 0.5 0.5 1.17157 0.5 2V34C0.5 34.8284 1.17157 35.5 2 35.5H70C70.8284 35.5 71.5 34.8284 71.5 34V2C71.5 1.17157 70.8284 0.5 70 0.5Z" stroke="#E0E0E0"/>
<path d="M56 18C56 19.5759 55.6896 21.1363 55.0866 22.5922C54.4835 24.0481 53.5996 25.371 52.4853 26.4853C51.371 27.5996 50.0481 28.4835 48.5922 29.0866C47.1363 29.6896 45.5759 30 44 30C42.4241 30 40.8637 29.6896 39.4078 29.0866C37.9519 28.4835 36.629 27.5996 35.5147 26.4853C34.4004 25.371 33.5165 24.0481 32.9134 22.5922C32.3104 21.1363 32 19.5759 32 18C32 16.4241 32.3104 14.8637 32.9134 13.4078C33.5165 11.9519 34.4004 10.629 35.5147 9.51472C36.629 8.40041 37.9519 7.5165 39.4078 6.91345C40.8637 6.31039 42.4241 6 44 6C45.5759 6 47.1363 6.31039 48.5922 6.91345C50.0481 7.5165 51.371 8.40041 52.4853 9.51472C53.5996 10.629 54.4835 11.9519 55.0866 13.4078C55.6896 14.8637 56 16.4241 56 18Z" fill="#FFB600"/>
<path d="M44 6C47.1801 6.00818 50.2276 7.27509 52.4762 9.52376C54.7249 11.7724 55.9918 14.8199 56 18C56 19.5759 55.6896 21.1363 55.0866 22.5922C54.4835 24.0481 53.5996 25.371 52.4853 26.4853C51.371 27.5996 50.0481 28.4835 48.5922 29.0866C47.1363 29.6896 45.5759 30 44 30C42.4241 30 40.8637 29.6896 39.4078 29.0866C37.9519 28.4835 36.629 27.5996 35.5147 26.4853C34.4004 25.371 33.5165 24.0481 32.9134 22.5922C32.3104 21.1363 32 19.5759 32 18" fill="#F7981D"/>
<path d="M44 6C47.1801 6.00818 50.2276 7.27509 52.4762 9.52376C54.7249 11.7724 55.9918 14.8199 56 18C56.0013 19.5762 55.6918 21.1373 55.0892 22.5938C54.4866 24.0503 53.6028 25.3736 52.4882 26.4882C51.3736 27.6028 50.0503 28.4866 48.5938 29.0892C47.1373 29.6918 45.5762 30.0013 44 30" fill="#FF8500"/>
<path d="M27.8732 6C24.6906 6.01684 21.645 7.29727 19.4065 9.55962C17.168 11.822 15.9199 14.8809 15.9367 18.0635C15.9535 21.2461 17.234 24.2917 19.4963 26.5302C21.7587 28.7687 24.8176 30.0168 28.0002 30C30.9785 29.9872 33.8481 28.8799 36.0632 26.889C36.4971 26.4972 36.9003 26.0726 37.2692 25.619H34.7942C34.4775 25.2324 34.1808 24.8299 33.9052 24.413H38.1592C38.4299 24.0114 38.6641 23.5863 38.8592 23.143H33.2062C32.9989 22.7359 32.8288 22.3108 32.6982 21.873H39.2982C39.7043 20.6432 39.9185 19.3581 39.9332 18.063C39.9147 17.211 39.8298 16.3618 39.6792 15.523H32.3172C32.3928 15.0927 32.4988 14.6683 32.6342 14.253H39.2342C39.1035 13.8152 38.9335 13.3901 38.7262 12.983H33.1432C33.3519 12.5466 33.5857 12.1225 33.8432 11.713H38.1002C37.8401 11.2496 37.52 10.8226 37.1482 10.443H34.7942C35.1639 10.0102 35.5671 9.60733 36.0002 9.238C33.8072 7.21139 30.9231 6.0986 27.9372 6.127C27.9372 6 27.9372 6 27.8732 6Z" fill="#FF5050"/>
<path d="M16 18.0005C15.9987 19.5767 16.3082 21.1377 16.9108 22.5942C17.5134 24.0507 18.3972 25.3741 19.5118 26.4887C20.6264 27.6033 21.9497 28.4871 23.4062 29.0897C24.8627 29.6923 26.4238 30.0018 28 30.0005C30.9783 29.9876 33.8479 28.8804 36.063 26.8895C36.497 26.4977 36.9001 26.0731 37.269 25.6195H34.794C34.4773 25.2329 34.1806 24.8304 33.905 24.4135H38.159C38.4297 24.0118 38.664 23.5868 38.859 23.1435H33.206C32.9987 22.7364 32.8286 22.3113 32.698 21.8735H39.298C39.7041 20.6436 39.9183 19.3586 39.933 18.0635C39.9145 17.2115 39.8296 16.3623 39.679 15.5235H32.317C32.3927 15.0932 32.4986 14.6688 32.634 14.2535H39.234C39.1034 13.8157 38.9333 13.3906 38.726 12.9835H33.143C33.3517 12.5471 33.5855 12.123 33.843 11.7135H38.1C37.8399 11.2501 37.5198 10.8231 37.148 10.4435H34.794C35.1637 10.0107 35.5669 9.60781 36 9.23848C33.807 7.21187 30.9229 6.09909 27.937 6.12748H27.874" fill="#E52836"/>
<path d="M28 30.0005C30.9783 29.9876 33.848 28.8804 36.063 26.8895C36.497 26.4977 36.9002 26.0731 37.269 25.6195H34.794C34.4773 25.2329 34.1806 24.8304 33.905 24.4135H38.159C38.4297 24.0118 38.664 23.5868 38.859 23.1435H33.206C32.9987 22.7364 32.8287 22.3113 32.698 21.8735H39.298C39.7041 20.6436 39.9183 19.3586 39.933 18.0635C39.9145 17.2115 39.8296 16.3623 39.679 15.5235H32.317C32.3927 15.0932 32.4986 14.6688 32.634 14.2535H39.234C39.1034 13.8157 38.9333 13.3906 38.726 12.9835H33.143C33.3518 12.5471 33.5855 12.123 33.843 11.7135H38.1C37.84 11.2501 37.5199 10.8231 37.148 10.4435H34.794C35.1637 10.0107 35.567 9.60781 36 9.23848C33.807 7.21187 30.9229 6.09909 27.937 6.12748H27.874" fill="#CB2026"/>
<path d="M32.254 21.0479L32.444 19.9689C32.3397 19.9961 32.2338 20.0172 32.127 20.0319C31.683 20.0319 31.619 19.7779 31.683 19.6509L32.064 17.4289H32.764L32.954 16.2229H32.319L32.446 15.4609H31.176C31.176 15.4609 30.414 19.6509 30.414 20.1609C30.3948 20.3017 30.4073 20.445 30.4507 20.5803C30.494 20.7156 30.5671 20.8395 30.6645 20.943C30.7618 21.0464 30.8811 21.1267 31.0136 21.1781C31.1461 21.2295 31.2883 21.2506 31.43 21.2399C31.7154 21.237 31.9967 21.1715 32.254 21.0479Z" fill="white"/>
<path d="M32.7003 19.0154C32.6684 19.315 32.7041 19.6179 32.8045 19.902C32.9049 20.186 33.0676 20.444 33.2806 20.6571C33.4936 20.8701 33.7516 21.0328 34.0357 21.1332C34.3197 21.2336 34.6227 21.2692 34.9223 21.2374C35.3749 21.2664 35.8287 21.2017 36.2553 21.0474L36.5093 19.8414C36.0878 20.0269 35.6361 20.1343 35.1763 20.1584C33.7763 20.1584 34.0333 19.1424 34.0333 19.1424H36.6333C36.724 18.7664 36.7882 18.3845 36.8253 17.9994C36.8433 17.753 36.808 17.5057 36.7219 17.2741C36.6358 17.0426 36.5008 16.8323 36.3261 16.6576C36.1514 16.4829 35.9411 16.3479 35.7096 16.2618C35.478 16.1756 35.2306 16.1404 34.9843 16.1584C33.6513 16.0314 32.7003 17.4284 32.7003 19.0154ZM34.9223 17.1744C35.6223 17.1744 35.4933 17.9994 35.4933 18.0634H34.1003C34.1003 17.9994 34.2223 17.1744 34.9213 17.1744H34.9223Z" fill="white"/>
<path d="M42.9842 21.0477L43.2382 19.6477C42.9007 19.8179 42.5351 19.9253 42.1592 19.9647C41.2702 19.9647 40.8892 19.2647 40.8892 18.5047C40.8892 16.9807 41.6512 16.1557 42.5402 16.1557C42.95 16.1695 43.3471 16.3019 43.6832 16.5367L43.8732 15.2037C43.4078 15.0168 42.9142 14.9096 42.4132 14.8867C40.9532 14.8867 39.4922 16.1567 39.4922 18.5697C39.4922 20.1567 40.2542 21.2367 41.7782 21.2367C42.1858 21.2171 42.5901 21.1537 42.9842 21.0477Z" fill="white"/>
<path d="M25.2699 16.032C24.7511 16.0282 24.2355 16.1142 23.7459 16.286L23.5559 17.365C24.0021 17.1919 24.4773 17.1057 24.9559 17.111C25.3999 17.111 25.7809 17.174 25.7809 17.555C25.7809 17.809 25.7179 17.872 25.7179 17.872H25.1429C24.0639 17.872 22.8569 18.316 22.8569 19.772C22.8569 20.915 23.6189 21.1721 24.0629 21.1721C24.5666 21.1654 25.0473 20.9597 25.3999 20.6L25.3369 21.108H26.4799L26.9879 17.616C27.0029 17.3924 26.9676 17.1682 26.8846 16.96C26.8015 16.7517 26.6729 16.5648 26.5081 16.4128C26.3433 16.2609 26.1465 16.1478 25.9322 16.0819C25.718 16.016 25.4917 15.999 25.2699 16.032ZM25.5239 18.889C25.5239 19.079 25.3969 20.095 24.6349 20.095C24.5679 20.0961 24.5014 20.0837 24.4393 20.0586C24.3771 20.0334 24.3207 19.9961 24.2733 19.9487C24.2259 19.9013 24.1885 19.8448 24.1634 19.7827C24.1383 19.7206 24.1259 19.6541 24.1269 19.587C24.1269 19.27 24.3169 18.8251 25.2699 18.8251C25.3514 18.8574 25.4368 18.8789 25.5239 18.889Z" fill="white"/>
<path d="M28.19 21.1748C28.4273 21.2153 28.6707 21.2026 28.9026 21.1376C29.1345 21.0726 29.349 20.957 29.5308 20.7991C29.7126 20.6411 29.857 20.4448 29.9537 20.2242C30.0504 20.0037 30.0969 19.7645 30.09 19.5238C30.09 17.9368 28.566 18.2538 28.566 17.6238C28.566 17.3068 28.82 17.1798 29.266 17.1798C29.456 17.1798 30.155 17.2428 30.155 17.2428L30.345 16.0998C29.9499 16.0069 29.5447 15.9642 29.139 15.9728C28.187 15.9728 27.239 16.3538 27.239 17.6238C27.239 19.0838 28.826 18.9568 28.826 19.5238C28.826 19.9048 28.382 19.9678 28.064 19.9678C27.6759 19.9582 27.2912 19.8942 26.921 19.7778L26.731 20.9208C26.794 21.0478 27.111 21.1748 28.19 21.1748Z" fill="white"/>
<path d="M53.5243 15.0156L53.2703 16.7296C53.1215 16.549 52.9383 16.3997 52.7312 16.2907C52.5241 16.1817 52.2974 16.115 52.0643 16.0946C50.9213 16.0946 49.9053 17.4946 49.9053 19.1426C49.9053 20.1586 50.4133 21.2426 51.4923 21.2426C51.7176 21.2414 51.9404 21.1955 52.1478 21.1074C52.3552 21.0193 52.543 20.8909 52.7003 20.7296L52.6373 21.1736H53.9003L54.8523 15.0736L53.5243 15.0156ZM52.9533 18.3806C52.9533 19.0806 52.6363 19.9676 51.9373 19.9676C51.4933 19.9676 51.2373 19.5866 51.2373 18.9516C51.2373 17.9356 51.6813 17.3006 52.2533 17.3006C52.7003 17.2996 52.9523 17.6186 52.9523 18.3806H52.9533Z" fill="white"/>
<path d="M18.3491 21.1107L19.1111 16.5397L19.2381 21.1107H20.1271L21.7781 16.5397L21.0781 21.1107H22.4131L23.4291 15.0107H21.3291L20.0591 18.7567L20.0001 15.0157H18.1591L17.1431 21.1157L18.3491 21.1107Z" fill="white"/>
<path d="M38.0323 21.1112C38.4133 19.0112 38.4763 17.3012 39.3653 17.6192C39.4374 17.1126 39.5872 16.6202 39.8093 16.1592H39.5553C38.9843 16.1592 38.5393 16.9212 38.5393 16.9212L38.6663 16.2212H37.4603L36.6353 21.1732H38.0353L38.0323 21.1112Z" fill="white"/>
<path d="M45.9002 16.0313C45.3814 16.0274 44.8658 16.1134 44.3762 16.2853L44.1862 17.3643C44.6324 17.1911 45.1076 17.1049 45.5862 17.1103C46.0302 17.1103 46.4112 17.1733 46.4112 17.5543C46.4112 17.8083 46.3482 17.8713 46.3482 17.8713H45.7772C44.6982 17.8713 43.4912 18.3153 43.4912 19.7713C43.4912 20.9143 44.2532 21.1713 44.6972 21.1713C45.1994 21.1638 45.6783 20.9586 46.0302 20.6003L45.9672 21.1083H47.1102L47.6182 17.6163C47.6367 17.3917 47.6037 17.1659 47.5219 16.956C47.44 16.746 47.3114 16.5575 47.1458 16.4047C46.9802 16.252 46.782 16.1389 46.5661 16.0742C46.3503 16.0095 46.1226 15.9948 45.9002 16.0313ZM46.2172 18.8883C46.2172 19.0783 46.0902 20.0943 45.3282 20.0943C45.2612 20.0953 45.1947 20.0829 45.1325 20.0578C45.0704 20.0327 45.014 19.9953 44.9666 19.9479C44.9192 19.9005 44.8818 19.8441 44.8567 19.7819C44.8315 19.7198 44.8191 19.6533 44.8202 19.5863C44.8202 19.2693 45.0102 18.8243 45.9632 18.8243C46.1592 18.8883 46.1592 18.8883 46.2222 18.8883H46.2172Z" fill="white"/>
<path d="M48.7003 21.1112C49.0813 19.0112 49.1443 17.3012 50.0333 17.6192C50.1055 17.1126 50.2552 16.6202 50.4773 16.1592H50.2233C49.6523 16.1592 49.2073 16.9212 49.2073 16.9212L49.3343 16.2212H48.1273L47.3003 21.1752H48.7003V21.1112Z" fill="white"/>
<path d="M30.2861 20.1589C30.2669 20.2995 30.2794 20.4426 30.3226 20.5778C30.3659 20.7129 30.4387 20.8367 30.5359 20.9401C30.633 21.0435 30.7521 21.1239 30.8843 21.1754C31.0165 21.227 31.1585 21.2483 31.3001 21.2379C31.627 21.2396 31.9508 21.175 32.2521 21.0479L32.4421 19.9689C32.3377 19.9961 32.2319 20.0172 32.1251 20.0319C31.6811 20.0319 31.6171 19.7779 31.6811 19.6509L32.0621 17.4289H32.7621L32.9521 16.2229H32.3171L32.4441 15.4609" fill="#DCE5E5"/>
<path d="M33.333 19.0154C33.333 20.7934 33.904 21.2374 34.92 21.2374C35.3727 21.2664 35.8265 21.2017 36.253 21.0474L36.507 19.8414C36.0855 20.0269 35.6339 20.1343 35.174 20.1584C33.774 20.1584 34.031 19.1424 34.031 19.1424H36.631C36.7225 18.7665 36.7873 18.3845 36.825 17.9994C36.843 17.753 36.8078 17.5057 36.7217 17.2741C36.6355 17.0426 36.5005 16.8323 36.3258 16.6576C36.1511 16.4829 35.9409 16.3479 35.7093 16.2618C35.4778 16.1756 35.2304 16.1404 34.984 16.1584C33.651 16.0314 33.333 17.4284 33.333 19.0154ZM34.92 17.1744C35.62 17.1744 35.745 17.9994 35.745 18.0634H34.1C34.1 17.9994 34.222 17.1744 34.921 17.1744H34.92Z" fill="#DCE5E5"/>
<path d="M42.984 21.0477L43.238 19.6477C42.9005 19.8179 42.5349 19.9253 42.159 19.9647C41.27 19.9647 40.889 19.2647 40.889 18.5047C40.889 16.9807 41.651 16.1557 42.54 16.1557C42.9498 16.1695 43.3468 16.3019 43.683 16.5367L43.873 15.2037C43.4075 15.0168 42.914 14.9096 42.413 14.8867C40.953 14.8867 40.127 16.1567 40.127 18.5697C40.127 20.1567 40.254 21.2367 41.778 21.2367C42.1856 21.2171 42.5899 21.1537 42.984 21.0477Z" fill="#DCE5E5"/>
<path d="M23.5559 17.4292C24.0021 17.256 24.4773 17.1698 24.9559 17.1752C25.3999 17.1752 25.7809 17.2382 25.7809 17.6192C25.7809 17.8732 25.7179 17.9362 25.7179 17.9362H25.1429C24.0639 17.9362 22.8569 18.3802 22.8569 19.8362C22.8569 20.9792 23.6189 21.2362 24.0629 21.2362C24.5662 21.2303 25.0468 21.0258 25.3999 20.6672L25.3369 21.1752H26.4799L26.9879 17.6832C26.9879 16.2232 25.7179 16.1592 25.2099 16.1592L23.5559 17.4292ZM26.1619 18.8892C26.0257 19.2004 25.8153 19.4736 25.5491 19.6847C25.2829 19.8958 24.969 20.0385 24.6349 20.1002C24.5679 20.1013 24.5014 20.0889 24.4393 20.0637C24.3771 20.0386 24.3207 20.0012 24.2733 19.9538C24.2259 19.9064 24.1885 19.85 24.1634 19.7879C24.1383 19.7257 24.1259 19.6592 24.1269 19.5922C24.1269 19.2752 24.3169 18.8302 25.2699 18.8302C25.564 18.8753 25.8615 18.895 26.1589 18.8892H26.1619Z" fill="#DCE5E5"/>
<path d="M26.7939 21.0478C27.2725 21.1566 27.7638 21.1993 28.2539 21.1748C28.4913 21.2153 28.7347 21.2026 28.9666 21.1376C29.1985 21.0726 29.413 20.957 29.5948 20.7991C29.7766 20.6411 29.921 20.4448 30.0177 20.2242C30.1144 20.0037 30.1609 19.7645 30.1539 19.5238C30.1539 17.9368 28.6299 18.2538 28.6299 17.6238C28.6299 17.3068 28.8839 17.1798 29.3299 17.1798C29.5199 17.1798 30.2189 17.2428 30.2189 17.2428L30.4089 16.0998C30.0139 16.0069 29.6087 15.9642 29.2029 15.9728C28.2509 15.9728 27.9329 16.3538 27.9329 17.6238C27.9329 19.0838 28.8849 18.9568 28.8849 19.5238C28.8849 19.9048 28.4409 19.9678 28.1229 19.9678" fill="#DCE5E5"/>
<path d="M53.2703 16.7292C53.1215 16.5486 52.9382 16.3994 52.7312 16.2903C52.5241 16.1813 52.2974 16.1146 52.0643 16.0942C50.9213 16.0942 50.5403 17.4942 50.5403 19.1422C50.5403 20.1582 50.4133 21.2422 51.4923 21.2422C51.7176 21.2411 51.9404 21.1951 52.1478 21.107C52.3551 21.0189 52.5429 20.8905 52.7003 20.7292L52.6373 21.1732H53.9003L54.8523 15.0732L53.2703 16.7292ZM53.2013 18.3732C53.2013 19.0732 52.6303 19.9602 51.9313 19.9602C51.4873 19.9602 51.2313 19.5792 51.2313 18.9442C51.2313 17.9282 51.6753 17.2932 52.2473 17.2932C52.3842 17.2938 52.5194 17.3233 52.6441 17.3799C52.7688 17.4365 52.8801 17.5188 52.9707 17.6215C53.0613 17.7242 53.1291 17.8449 53.1697 17.9757C53.2103 18.1064 53.2228 18.2443 53.2063 18.3802L53.2013 18.3732Z" fill="#DCE5E5"/>
<path d="M18.3491 21.1107L19.1111 16.5397L19.2381 21.1107H20.1271L21.7781 16.5397L21.0781 21.1107H22.4131L23.4291 15.0107H21.8411L20.0631 18.7617L20.0001 15.0157H19.3001L17.1411 21.1157L18.3491 21.1107Z" fill="#DCE5E5"/>
<path d="M36.7002 21.1112H38.0332C38.4142 19.0112 38.4772 17.3012 39.3662 17.6192C39.4384 17.1126 39.5881 16.6202 39.8102 16.1592H39.5562C38.9852 16.1592 38.5402 16.9212 38.5402 16.9212L38.6672 16.2212" fill="#DCE5E5"/>
<path d="M44.1901 17.4283C44.6363 17.2551 45.1115 17.1689 45.5901 17.1742C46.0341 17.1742 46.4151 17.2372 46.4151 17.6182C46.4151 17.8722 46.3521 17.9353 46.3521 17.9353H45.7811C44.7021 17.9353 43.4951 18.3793 43.4951 19.8353C43.4951 20.9783 44.2571 21.2353 44.7011 21.2353C45.2033 21.2278 45.6822 21.0226 46.0341 20.6643L45.9711 21.1723H47.1141L47.6221 17.6803C47.6221 16.2203 46.3521 16.1562 45.8441 16.1562L44.1901 17.4283ZM46.7961 18.8862C46.6603 19.1978 46.4501 19.4712 46.1841 19.6827C45.9181 19.8942 45.6042 20.0372 45.2701 20.0993C45.2031 20.1003 45.1366 20.0879 45.0744 20.0628C45.0123 20.0376 44.9559 20.0003 44.9085 19.9529C44.8611 19.9055 44.8237 19.849 44.7986 19.7869C44.7734 19.7248 44.761 19.6583 44.7621 19.5912C44.7621 19.2742 44.9521 18.8293 45.9051 18.8293C46.1994 18.8726 46.4967 18.8923 46.7941 18.8883L46.7961 18.8862Z" fill="#DCE5E5"/>
<path d="M47.3652 21.1112H48.7002C49.0812 19.0112 49.1442 17.3012 50.0332 17.6192C50.1054 17.1126 50.2552 16.6202 50.4772 16.1592H50.2232C49.6522 16.1592 49.2072 16.9212 49.2072 16.9212L49.3342 16.2212" fill="#DCE5E5"/>
</svg>
