<svg width="72" height="36" viewBox="0 0 72 36" fill="none" xmlns="http://www.w3.org/2000/svg">
<path d="M70 0H2C0.89543 0 0 0.89543 0 2V34C0 35.1046 0.89543 36 2 36H70C71.1046 36 72 35.1046 72 34V2C72 0.89543 71.1046 0 70 0Z" fill="white"/>
<path d="M70 0.5H2C1.17157 0.5 0.5 1.17157 0.5 2V34C0.5 34.8284 1.17157 35.5 2 35.5H70C70.8284 35.5 71.5 34.8284 71.5 34V2C71.5 1.17157 70.8284 0.5 70 0.5Z" stroke="#E0E0E0"/>
<path d="M36.3722 10.1818V16H35.3097L32.7784 12.3381H32.7358V16H31.5057V10.1818H32.5852L35.0966 13.8409H35.1477V10.1818H36.3722ZM37.3885 16V10.1818H41.3089V11.196H38.6186V12.5824H41.1072V13.5966H38.6186V14.9858H41.3203V16H37.3885ZM42.0653 11.196V10.1818H46.8438V11.196H45.0625V16H43.8466V11.196H42.0653ZM31.5057 26V20.1818H33.8352C34.2633 20.1818 34.6203 20.2453 34.9062 20.3722C35.1922 20.4991 35.4072 20.6752 35.5511 20.9006C35.6951 21.1241 35.767 21.3816 35.767 21.6733C35.767 21.9006 35.7216 22.1004 35.6307 22.2727C35.5398 22.4432 35.4148 22.5833 35.2557 22.6932C35.0985 22.8011 34.9186 22.8778 34.7159 22.9233V22.9801C34.9375 22.9896 35.1449 23.0521 35.3381 23.1676C35.5331 23.2831 35.6913 23.4451 35.8125 23.6534C35.9337 23.8598 35.9943 24.1061 35.9943 24.392C35.9943 24.7008 35.9176 24.9763 35.7642 25.2188C35.6127 25.4593 35.3883 25.6496 35.0909 25.7898C34.7936 25.9299 34.4271 26 33.9915 26H31.5057ZM32.7358 24.9943H33.7386C34.0814 24.9943 34.3314 24.929 34.4886 24.7983C34.6458 24.6657 34.7244 24.4896 34.7244 24.2699C34.7244 24.1089 34.6856 23.9669 34.608 23.8438C34.5303 23.7206 34.4195 23.6241 34.2756 23.554C34.1335 23.4839 33.964 23.4489 33.767 23.4489H32.7358V24.9943ZM32.7358 22.6165H33.6477C33.8163 22.6165 33.9659 22.5871 34.0966 22.5284C34.2292 22.4678 34.3333 22.3826 34.4091 22.2727C34.4867 22.1629 34.5256 22.0312 34.5256 21.8778C34.5256 21.6676 34.4508 21.4981 34.3011 21.3693C34.1534 21.2405 33.9432 21.1761 33.6705 21.1761H32.7358V22.6165ZM37.7976 26H36.4794L38.4879 20.1818H40.0732L42.0788 26H40.7607L39.3033 21.5114H39.2578L37.7976 26ZM37.7152 23.7131H40.8288V24.6733H37.7152V23.7131ZM47.6456 20.1818V26H46.5831L44.0518 22.3381H44.0092V26H42.7791V20.1818H43.8587L46.37 23.8409H46.4212V20.1818H47.6456ZM48.6619 26V20.1818H49.892V22.7472H49.9688L52.0625 20.1818H53.5369L51.3778 22.7869L53.5625 26H52.0909L50.4972 23.608L49.892 24.3466V26H48.6619ZM55.4077 20.1818V26H54.1776V20.1818H55.4077ZM61.2862 20.1818V26H60.2237L57.6925 22.3381H57.6499V26H56.4197V20.1818H57.4993L60.0107 23.8409H60.0618V20.1818H61.2862ZM66.1605 22.0625C66.1207 21.9242 66.0649 21.8021 65.9929 21.696C65.9209 21.5881 65.8329 21.4972 65.7287 21.4233C65.6264 21.3475 65.509 21.2898 65.3764 21.25C65.2457 21.2102 65.1009 21.1903 64.9418 21.1903C64.6444 21.1903 64.383 21.2642 64.1577 21.4119C63.9342 21.5597 63.7599 21.7746 63.6349 22.0568C63.5099 22.3371 63.4474 22.6799 63.4474 23.0852C63.4474 23.4905 63.509 23.8352 63.6321 24.1193C63.7552 24.4034 63.9295 24.6203 64.1548 24.7699C64.3802 24.9176 64.6463 24.9915 64.9531 24.9915C65.2315 24.9915 65.4692 24.9422 65.6662 24.8438C65.8651 24.7434 66.0166 24.6023 66.1207 24.4205C66.2268 24.2386 66.2798 24.0237 66.2798 23.7756L66.5298 23.8125H65.0298V22.8864H67.4645V23.6193C67.4645 24.1307 67.3565 24.5701 67.1406 24.9375C66.9247 25.303 66.6274 25.5852 66.2486 25.7841C65.8698 25.9811 65.4361 26.0795 64.9474 26.0795C64.402 26.0795 63.9228 25.9593 63.5099 25.7188C63.0971 25.4763 62.7751 25.1326 62.544 24.6875C62.3149 24.2405 62.2003 23.7102 62.2003 23.0966C62.2003 22.625 62.2685 22.2045 62.4048 21.8352C62.5431 21.464 62.7363 21.1496 62.9844 20.892C63.2325 20.6345 63.5213 20.4384 63.8509 20.304C64.1804 20.1695 64.5374 20.1023 64.9219 20.1023C65.2514 20.1023 65.5582 20.1506 65.8423 20.2472C66.1264 20.3419 66.3783 20.4763 66.598 20.6506C66.8196 20.8248 67.0005 21.0322 67.1406 21.2727C67.2808 21.5114 67.3707 21.7746 67.4105 22.0625H66.1605Z" fill="#D39434"/>
<path d="M25.3848 25.9072H5.98177C5.72176 25.9101 5.47354 26.0161 5.29166 26.202C5.10977 26.3878 5.0091 26.6382 5.01177 26.8982C5.0091 27.1582 5.10977 27.4087 5.29166 27.5945C5.47354 27.7803 5.72176 27.8863 5.98177 27.8892H25.3818C25.6418 27.8863 25.89 27.7803 26.0719 27.5945C26.2538 27.4087 26.3544 27.1582 26.3518 26.8982C26.3544 26.6387 26.2542 26.3887 26.0729 26.203C25.8917 26.0173 25.6443 25.9109 25.3848 25.9072V25.9072Z" fill="#D39434"/>
<path d="M24.1706 25.3138H7.19364C6.93081 25.3138 6.67874 25.2094 6.49289 25.0236C6.30705 24.8377 6.20264 24.5857 6.20264 24.3228C6.20264 24.06 6.30705 23.8079 6.49289 23.6221C6.67874 23.4362 6.93081 23.3318 7.19364 23.3318H7.43664V14.4138H7.19364C7.06455 14.4125 6.9412 14.3603 6.85038 14.2686C6.75957 14.1768 6.70863 14.0529 6.70864 13.9238C6.70745 13.8591 6.71907 13.7948 6.74283 13.7345C6.7666 13.6743 6.80204 13.6194 6.84712 13.5729C6.89219 13.5265 6.94602 13.4894 7.00549 13.4638C7.06496 13.4382 7.1289 13.4246 7.19364 13.4238H24.1706C24.2354 13.4246 24.2993 13.4382 24.3588 13.4638C24.4183 13.4894 24.4721 13.5265 24.5172 13.5729C24.5622 13.6194 24.5977 13.6743 24.6214 13.7345C24.6452 13.7948 24.6568 13.8591 24.6556 13.9238C24.6563 13.9882 24.6443 14.052 24.6203 14.1117C24.5962 14.1714 24.5607 14.2258 24.5157 14.2718C24.4706 14.3177 24.417 14.3544 24.3578 14.3796C24.2986 14.4049 24.235 14.4182 24.1706 14.4188H23.9286V23.3318H24.1706C24.4335 23.3318 24.6855 23.4362 24.8714 23.6221C25.0572 23.8079 25.1616 24.06 25.1616 24.3228C25.1616 24.5857 25.0572 24.8377 24.8714 25.0236C24.6855 25.2094 24.4335 25.3138 24.1706 25.3138ZM19.0776 14.4138V23.3308H21.9876V14.4138H19.0776ZM14.2236 14.4138V23.3308H17.1336V14.4138H14.2236ZM9.37564 14.4138V23.3308H12.2856V14.4138H9.37564Z" fill="#D39434"/>
<path d="M5.98165 12.5337H25.3936C25.626 12.5293 25.8494 12.4436 26.0251 12.2916C26.2008 12.1396 26.3178 11.9308 26.3555 11.7015C26.3933 11.4723 26.3496 11.237 26.232 11.0366C26.1144 10.8363 25.9303 10.6834 25.7116 10.6047L16.0816 6.18068C15.9562 6.12277 15.8198 6.09277 15.6816 6.09277C15.5435 6.09277 15.407 6.12277 15.2816 6.18068L5.58365 10.6387C5.38018 10.7351 5.21518 10.8973 5.11537 11.0991C5.01555 11.3009 4.98676 11.5305 5.03365 11.7507C5.07773 11.9702 5.19603 12.1679 5.36866 12.3105C5.5413 12.453 5.75775 12.5319 5.98165 12.5337Z" fill="#D39434"/>
</svg>
