<svg width="72" height="36" viewBox="0 0 72 36" fill="none" xmlns="http://www.w3.org/2000/svg">
<path d="M70 0H2C0.89543 0 0 0.89543 0 2V34C0 35.1046 0.89543 36 2 36H70C71.1046 36 72 35.1046 72 34V2C72 0.89543 71.1046 0 70 0Z" fill="white"/>
<path d="M70 0.5H2C1.17157 0.5 0.5 1.17157 0.5 2V34C0.5 34.8284 1.17157 35.5 2 35.5H70C70.8284 35.5 71.5 34.8284 71.5 34V2C71.5 1.17157 70.8284 0.5 70 0.5Z" stroke="#E0E0E0"/>
<path d="M31.5057 16V10.1818H35.4261V11.196H32.7358V12.5824H35.2244V13.5966H32.7358V14.9858H35.4375V16H31.5057ZM36.4041 10.1818H37.9212L39.5234 14.0909H39.5916L41.1939 10.1818H42.7109V16H41.5178V12.2131H41.4695L39.9638 15.9716H39.1513L37.6456 12.1989H37.5973V16H36.4041V10.1818ZM44.9545 10.1818V16H43.7244V10.1818H44.9545ZM36.8523 23.0909C36.8523 23.7254 36.732 24.2652 36.4915 24.7102C36.2528 25.1553 35.9271 25.4953 35.5142 25.7301C35.1032 25.9631 34.6411 26.0795 34.1278 26.0795C33.6108 26.0795 33.1468 25.9621 32.7358 25.7273C32.3248 25.4924 32 25.1525 31.7614 24.7074C31.5227 24.2623 31.4034 23.7235 31.4034 23.0909C31.4034 22.4564 31.5227 21.9167 31.7614 21.4716C32 21.0265 32.3248 20.6875 32.7358 20.4545C33.1468 20.2197 33.6108 20.1023 34.1278 20.1023C34.6411 20.1023 35.1032 20.2197 35.5142 20.4545C35.9271 20.6875 36.2528 21.0265 36.4915 21.4716C36.732 21.9167 36.8523 22.4564 36.8523 23.0909ZM35.6051 23.0909C35.6051 22.6799 35.5436 22.3333 35.4205 22.0511C35.2992 21.7689 35.1278 21.5549 34.9062 21.4091C34.6847 21.2633 34.4252 21.1903 34.1278 21.1903C33.8305 21.1903 33.571 21.2633 33.3494 21.4091C33.1278 21.5549 32.9555 21.7689 32.8324 22.0511C32.7112 22.3333 32.6506 22.6799 32.6506 23.0909C32.6506 23.5019 32.7112 23.8485 32.8324 24.1307C32.9555 24.4129 33.1278 24.6269 33.3494 24.7727C33.571 24.9186 33.8305 24.9915 34.1278 24.9915C34.4252 24.9915 34.6847 24.9186 34.9062 24.7727C35.1278 24.6269 35.2992 24.4129 35.4205 24.1307C35.5436 23.8485 35.6051 23.5019 35.6051 23.0909ZM37.7635 26V20.1818H40.0589C40.5002 20.1818 40.8762 20.2661 41.1868 20.4347C41.4974 20.6013 41.7341 20.8333 41.897 21.1307C42.0618 21.4261 42.1442 21.767 42.1442 22.1534C42.1442 22.5398 42.0608 22.8807 41.8942 23.1761C41.7275 23.4716 41.486 23.7017 41.1697 23.8665C40.8554 24.0312 40.4747 24.1136 40.0277 24.1136H38.5646V23.1278H39.8288C40.0656 23.1278 40.2607 23.0871 40.4141 23.0057C40.5694 22.9223 40.6849 22.8078 40.7607 22.6619C40.8383 22.5142 40.8771 22.3447 40.8771 22.1534C40.8771 21.9602 40.8383 21.7917 40.7607 21.6477C40.6849 21.5019 40.5694 21.3892 40.4141 21.3097C40.2588 21.2282 40.0618 21.1875 39.8232 21.1875H38.9936V26H37.7635ZM42.7216 21.196V20.1818H47.5V21.196H45.7188V26H44.5028V21.196H42.7216ZM49.517 20.1818V26H48.2869V20.1818H49.517ZM55.8757 23.0909C55.8757 23.7254 55.7554 24.2652 55.5149 24.7102C55.2763 25.1553 54.9505 25.4953 54.5376 25.7301C54.1267 25.9631 53.6645 26.0795 53.1513 26.0795C52.6342 26.0795 52.1702 25.9621 51.7592 25.7273C51.3482 25.4924 51.0234 25.1525 50.7848 24.7074C50.5462 24.2623 50.4268 23.7235 50.4268 23.0909C50.4268 22.4564 50.5462 21.9167 50.7848 21.4716C51.0234 21.0265 51.3482 20.6875 51.7592 20.4545C52.1702 20.2197 52.6342 20.1023 53.1513 20.1023C53.6645 20.1023 54.1267 20.2197 54.5376 20.4545C54.9505 20.6875 55.2763 21.0265 55.5149 21.4716C55.7554 21.9167 55.8757 22.4564 55.8757 23.0909ZM54.6286 23.0909C54.6286 22.6799 54.567 22.3333 54.4439 22.0511C54.3227 21.7689 54.1513 21.5549 53.9297 21.4091C53.7081 21.2633 53.4486 21.1903 53.1513 21.1903C52.8539 21.1903 52.5945 21.2633 52.3729 21.4091C52.1513 21.5549 51.9789 21.7689 51.8558 22.0511C51.7346 22.3333 51.674 22.6799 51.674 23.0909C51.674 23.5019 51.7346 23.8485 51.8558 24.1307C51.9789 24.4129 52.1513 24.6269 52.3729 24.7727C52.5945 24.9186 52.8539 24.9915 53.1513 24.9915C53.4486 24.9915 53.7081 24.9186 53.9297 24.7727C54.1513 24.6269 54.3227 24.4129 54.4439 24.1307C54.567 23.8485 54.6286 23.5019 54.6286 23.0909ZM61.6534 20.1818V26H60.5909L58.0597 22.3381H58.017V26H56.7869V20.1818H57.8665L60.3778 23.8409H60.429V20.1818H61.6534Z" fill="#174977"/>
<path d="M20.7941 8.00098H5.95312V12.707H26.2241V8.00098H20.7941Z" fill="#174977"/>
<path d="M12.7301 9.97193C13.1012 9.97193 13.4021 9.67107 13.4021 9.29993C13.4021 8.92879 13.1012 8.62793 12.7301 8.62793C12.359 8.62793 12.0581 8.92879 12.0581 9.29993C12.0581 9.67107 12.359 9.97193 12.7301 9.97193Z" fill="#38454F"/>
<path d="M14.7452 9.97193C15.1164 9.97193 15.4172 9.67107 15.4172 9.29993C15.4172 8.92879 15.1164 8.62793 14.7452 8.62793C14.3741 8.62793 14.0732 8.92879 14.0732 9.29993C14.0732 9.67107 14.3741 9.97193 14.7452 9.97193Z" fill="#38454F"/>
<path d="M17.4323 9.97193C17.8034 9.97193 18.1043 9.67107 18.1043 9.29993C18.1043 8.92879 17.8034 8.62793 17.4323 8.62793C17.0611 8.62793 16.7603 8.92879 16.7603 9.29993C16.7603 9.67107 17.0611 9.97193 17.4323 9.97193Z" fill="#38454F"/>
<path d="M19.4469 9.97193C19.818 9.97193 20.1189 9.67107 20.1189 9.29993C20.1189 8.92879 19.818 8.62793 19.4469 8.62793C19.0758 8.62793 18.7749 8.92879 18.7749 9.29993C18.7749 9.67107 19.0758 9.97193 19.4469 9.97193Z" fill="#38454F"/>
<path d="M19.3472 6.19141C18.9544 6.19275 18.5728 6.3231 18.2612 6.56241C18.4545 6.70911 18.6163 6.89307 18.7372 7.10341C18.8778 7.00781 19.0388 6.94655 19.2074 6.92454C19.3759 6.90254 19.5473 6.92041 19.7077 6.97672C19.8681 7.03303 20.013 7.1262 20.1308 7.24874C20.2486 7.37128 20.336 7.51977 20.386 7.68225C20.436 7.84473 20.4471 8.01667 20.4185 8.18423C20.3898 8.35179 20.3223 8.5103 20.2212 8.64699C20.1202 8.78368 19.9885 8.89474 19.8367 8.97124C19.6849 9.04773 19.5172 9.08752 19.3472 9.08741C19.2512 9.08741 19.1591 9.12555 19.0913 9.19343C19.0234 9.26132 18.9852 9.3534 18.9852 9.44941C18.9852 9.54541 19.0234 9.63749 19.0913 9.70538C19.1591 9.77327 19.2512 9.81141 19.3472 9.81141C19.8273 9.81141 20.2877 9.62071 20.6271 9.28127C20.9665 8.94183 21.1572 8.48145 21.1572 8.00141C21.1572 7.52136 20.9665 7.06098 20.6271 6.72154C20.2877 6.3821 19.8273 6.19141 19.3472 6.19141V6.19141Z" fill="#AFB6BB"/>
<path d="M17.7851 7.10352C17.6242 7.37624 17.5386 7.68684 17.5371 8.00352H18.2611C18.2614 7.82602 18.2181 7.65118 18.1351 7.49428C18.0521 7.33738 17.932 7.20321 17.7851 7.10352Z" fill="#839594"/>
<path d="M15.6132 7.10352C15.4523 7.37624 15.3667 7.68684 15.3652 8.00352H16.0892C16.0895 7.82602 16.0462 7.65118 15.9632 7.49428C15.8803 7.33738 15.7601 7.20321 15.6132 7.10352Z" fill="#839594"/>
<path d="M18.7374 7.1034C18.6164 6.89307 18.4546 6.70911 18.2614 6.5624C17.9504 6.32189 17.5684 6.19141 17.1754 6.19141C16.7823 6.19141 16.4003 6.32189 16.0894 6.5624C16.2826 6.70911 16.4444 6.89307 16.5654 7.1034C16.7059 7.00781 16.867 6.94654 17.0355 6.92454C17.2041 6.90253 17.3754 6.92041 17.5358 6.97672C17.6962 7.03302 17.8412 7.1262 17.959 7.24874C18.0768 7.37128 18.1642 7.51976 18.2141 7.68225C18.2641 7.84473 18.2752 8.01667 18.2466 8.18423C18.218 8.35179 18.1504 8.51029 18.0494 8.64698C17.9483 8.78367 17.8166 8.89474 17.6648 8.97123C17.513 9.04772 17.3453 9.08752 17.1754 9.0874C17.0793 9.0874 16.9873 9.12554 16.9194 9.19343C16.8515 9.26132 16.8134 9.35339 16.8134 9.4494C16.8134 9.54541 16.8515 9.63749 16.9194 9.70537C16.9873 9.77326 17.0793 9.8114 17.1754 9.8114C17.4133 9.81166 17.649 9.76506 17.8689 9.67424C18.0889 9.58342 18.2888 9.45017 18.4572 9.28209C18.6257 9.11402 18.7594 8.91441 18.8507 8.69467C18.942 8.47493 18.9891 8.23936 18.9894 8.0014C18.9863 7.68504 18.8994 7.37515 18.7374 7.1034Z" fill="#AFB6BB"/>
<path d="M13.4414 7.10352C13.2804 7.37624 13.1948 7.68684 13.1934 8.00352H13.9174C13.9176 7.82602 13.8743 7.65118 13.7914 7.49428C13.7084 7.33738 13.5882 7.20321 13.4414 7.10352Z" fill="#839594"/>
<path d="M16.565 7.1034C16.4441 6.89307 16.2822 6.70911 16.089 6.5624C15.7781 6.32189 15.3961 6.19141 15.003 6.19141C14.6099 6.19141 14.2279 6.32189 13.917 6.5624C14.1102 6.70911 14.2721 6.89307 14.393 7.1034C14.5336 7.00781 14.6946 6.94654 14.8631 6.92454C15.0317 6.90253 15.2031 6.92041 15.3635 6.97672C15.5239 7.03302 15.6688 7.1262 15.7866 7.24874C15.9044 7.37128 15.9918 7.51976 16.0418 7.68225C16.0917 7.84473 16.1028 8.01667 16.0742 8.18423C16.0456 8.35179 15.9781 8.51029 15.877 8.64698C15.776 8.78367 15.6442 8.89474 15.4924 8.97123C15.3406 9.04772 15.173 9.08752 15.003 9.0874C14.907 9.0874 14.8149 9.12554 14.747 9.19343C14.6791 9.26132 14.641 9.35339 14.641 9.4494C14.641 9.54541 14.6791 9.63749 14.747 9.70537C14.8149 9.77326 14.907 9.8114 15.003 9.8114C15.2409 9.81166 15.4766 9.76506 15.6966 9.67424C15.9165 9.58342 16.1164 9.45017 16.2849 9.28209C16.4533 9.11402 16.587 8.91441 16.6783 8.69467C16.7696 8.47493 16.8167 8.23936 16.817 8.0014C16.814 7.68504 16.727 7.37515 16.565 7.1034Z" fill="#AFB6BB"/>
<path d="M14.393 7.10341C14.2733 6.89344 14.1128 6.70951 13.921 6.56241C13.6083 6.32227 13.2252 6.19188 12.831 6.19141C12.3511 6.19194 11.891 6.3828 11.5517 6.72213C11.2124 7.06145 11.0215 7.52153 11.021 8.00141H11.745C11.7458 7.78679 11.8102 7.57722 11.93 7.39915C12.0498 7.22109 12.2197 7.08251 12.4182 7.00093C12.6167 6.91935 12.8349 6.89841 13.0453 6.94076C13.2557 6.98312 13.4488 7.08686 13.6003 7.2389C13.7518 7.39094 13.8548 7.58445 13.8964 7.79501C13.938 8.00556 13.9163 8.22371 13.8339 8.42192C13.7516 8.62013 13.6124 8.7895 13.4339 8.90866C13.2554 9.02781 13.0456 9.0914 12.831 9.09141C12.7835 9.09141 12.7364 9.10077 12.6925 9.11896C12.6485 9.13715 12.6086 9.16382 12.575 9.19743C12.5414 9.23105 12.5147 9.27096 12.4966 9.31487C12.4784 9.35879 12.469 9.40587 12.469 9.45341C12.469 9.50094 12.4784 9.54802 12.4966 9.59194C12.5147 9.63586 12.5414 9.67576 12.575 9.70938C12.6086 9.74299 12.6485 9.76966 12.6925 9.78785C12.7364 9.80604 12.7835 9.81541 12.831 9.81541C13.3109 9.81488 13.7709 9.62401 14.1103 9.28468C14.4496 8.94536 14.6405 8.48529 14.641 8.00541C14.6399 7.68805 14.5543 7.37672 14.393 7.10341Z" fill="#AFB6BB"/>
<path d="M26.1652 12.6582H6.01318V27.4362H26.1652V12.6582Z" fill="#EDEADA"/>
<path d="M10.3792 18.7038C11.3065 18.7038 12.0582 17.8017 12.0582 16.6888C12.0582 15.576 11.3065 14.6738 10.3792 14.6738C9.45191 14.6738 8.7002 15.576 8.7002 16.6888C8.7002 17.8017 9.45191 18.7038 10.3792 18.7038Z" fill="#CEC9AE"/>
<path d="M16.0882 18.7038C17.2011 18.7038 18.1032 17.8017 18.1032 16.6888C18.1032 15.576 17.2011 14.6738 16.0882 14.6738C14.9754 14.6738 14.0732 15.576 14.0732 16.6888C14.0732 17.8017 14.9754 18.7038 16.0882 18.7038Z" fill="#CEC9AE"/>
<path d="M21.7981 18.7038C22.7254 18.7038 23.4771 17.8017 23.4771 16.6888C23.4771 15.576 22.7254 14.6738 21.7981 14.6738C20.8709 14.6738 20.1191 15.576 20.1191 16.6888C20.1191 17.8017 20.8709 18.7038 21.7981 18.7038Z" fill="#CEC9AE"/>
<path d="M10.3792 24.0777C11.3065 24.0777 12.0582 23.326 12.0582 22.3987C12.0582 21.4714 11.3065 20.7197 10.3792 20.7197C9.45191 20.7197 8.7002 21.4714 8.7002 22.3987C8.7002 23.326 9.45191 24.0777 10.3792 24.0777Z" fill="#CEC9AE"/>
<path d="M16.0882 24.0777C17.2011 24.0777 18.1032 23.326 18.1032 22.3987C18.1032 21.4714 17.2011 20.7197 16.0882 20.7197C14.9754 20.7197 14.0732 21.4714 14.0732 22.3987C14.0732 23.326 14.9754 24.0777 16.0882 24.0777Z" fill="#CEC9AE"/>
<path d="M21.7981 20.7197C22.1302 20.7197 22.4548 20.8182 22.7309 21.0027C23.0071 21.1872 23.2223 21.4494 23.3493 21.7562C23.4764 22.063 23.5097 22.4006 23.4449 22.7263C23.3801 23.052 23.2202 23.3511 22.9854 23.586C22.7506 23.8208 22.4514 23.9807 22.1257 24.0455C21.8 24.1102 21.4624 24.077 21.1556 23.9499C20.8488 23.8228 20.5866 23.6076 20.4021 23.3315C20.2176 23.0554 20.1191 22.7308 20.1191 22.3987C20.1191 21.9534 20.296 21.5264 20.6109 21.2115C20.9258 20.8966 21.3528 20.7197 21.7981 20.7197V20.7197Z" fill="#174977"/>
</svg>
