<svg width="72" height="36" viewBox="0 0 72 36" fill="none" xmlns="http://www.w3.org/2000/svg">
<path d="M70 0H2C0.89543 0 0 0.89543 0 2V34C0 35.1046 0.89543 36 2 36H70C71.1046 36 72 35.1046 72 34V2C72 0.89543 71.1046 0 70 0Z" fill="white"/>
<path d="M70 0.5H2C1.17157 0.5 0.5 1.17157 0.5 2V34C0.5 34.8284 1.17157 35.5 2 35.5H70C70.8284 35.5 71.5 34.8284 71.5 34V2C71.5 1.17157 70.8284 0.5 70 0.5Z" stroke="#E0E0E0"/>
<path d="M36.6392 12.2188H35.3949C35.3722 12.0578 35.3258 11.9148 35.2557 11.7898C35.1856 11.6629 35.0956 11.5549 34.9858 11.4659C34.8759 11.3769 34.7491 11.3087 34.6051 11.2614C34.4631 11.214 34.3087 11.1903 34.142 11.1903C33.8409 11.1903 33.5786 11.2652 33.3551 11.4148C33.1316 11.5625 32.9583 11.7784 32.8352 12.0625C32.7121 12.3447 32.6506 12.6875 32.6506 13.0909C32.6506 13.5057 32.7121 13.8542 32.8352 14.1364C32.9602 14.4186 33.1345 14.6316 33.358 14.7756C33.5814 14.9195 33.84 14.9915 34.1335 14.9915C34.2983 14.9915 34.4508 14.9697 34.5909 14.9261C34.733 14.8826 34.8589 14.8191 34.9688 14.7358C35.0786 14.6506 35.1695 14.5473 35.2415 14.4261C35.3153 14.3049 35.3665 14.1667 35.3949 14.0114L36.6392 14.017C36.607 14.2841 36.5265 14.5417 36.3977 14.7898C36.2708 15.036 36.0994 15.2566 35.8835 15.4517C35.6695 15.6449 35.4138 15.7983 35.1165 15.9119C34.821 16.0237 34.4867 16.0795 34.1136 16.0795C33.5947 16.0795 33.1307 15.9621 32.7216 15.7273C32.3144 15.4924 31.9924 15.1525 31.7557 14.7074C31.5208 14.2623 31.4034 13.7235 31.4034 13.0909C31.4034 12.4564 31.5227 11.9167 31.7614 11.4716C32 11.0265 32.3239 10.6875 32.733 10.4545C33.142 10.2197 33.6023 10.1023 34.1136 10.1023C34.4508 10.1023 34.7633 10.1496 35.0511 10.2443C35.3409 10.339 35.5975 10.4773 35.821 10.6591C36.0445 10.839 36.2263 11.0597 36.3665 11.321C36.5085 11.5824 36.5994 11.8816 36.6392 12.2188ZM38.4148 16H37.0966L39.1051 10.1818H40.6903L42.696 16H41.3778L39.9205 11.5114H39.875L38.4148 16ZM38.3324 13.7131H41.446V14.6733H38.3324V13.7131ZM46.4197 11.8551C46.397 11.6259 46.2995 11.4479 46.1271 11.321C45.9548 11.1941 45.7209 11.1307 45.4254 11.1307C45.2247 11.1307 45.0552 11.1591 44.9169 11.2159C44.7786 11.2708 44.6726 11.3475 44.5987 11.446C44.5268 11.5445 44.4908 11.6562 44.4908 11.7812C44.487 11.8854 44.5088 11.9763 44.5561 12.054C44.6054 12.1316 44.6726 12.1989 44.7578 12.2557C44.843 12.3106 44.9415 12.3589 45.0533 12.4006C45.165 12.4403 45.2843 12.4744 45.4112 12.5028L45.9339 12.6278C46.1877 12.6847 46.4207 12.7604 46.6328 12.8551C46.8449 12.9498 47.0286 13.0663 47.1839 13.2045C47.3393 13.3428 47.4595 13.5057 47.5447 13.6932C47.6319 13.8807 47.6764 14.0956 47.6783 14.3381C47.6764 14.6941 47.5855 15.0028 47.4055 15.2642C47.2275 15.5237 46.9699 15.7254 46.6328 15.8693C46.2976 16.0114 45.8932 16.0824 45.4197 16.0824C44.95 16.0824 44.541 16.0104 44.1925 15.8665C43.8459 15.7225 43.575 15.5095 43.38 15.2273C43.1868 14.9432 43.0855 14.5919 43.076 14.1733H44.2663C44.2796 14.3684 44.3355 14.5312 44.4339 14.6619C44.5343 14.7907 44.6679 14.8883 44.8345 14.9545C45.0031 15.0189 45.1934 15.0511 45.4055 15.0511C45.6139 15.0511 45.7947 15.0208 45.9482 14.9602C46.1035 14.8996 46.2237 14.8153 46.3089 14.7074C46.3942 14.5994 46.4368 14.4754 46.4368 14.3352C46.4368 14.2045 46.398 14.0947 46.3203 14.0057C46.2446 13.9167 46.1328 13.8409 45.9851 13.7784C45.8393 13.7159 45.6603 13.6591 45.4482 13.608L44.8146 13.4489C44.3241 13.3295 43.9368 13.143 43.6527 12.8892C43.3686 12.6354 43.2275 12.2936 43.2294 11.8636C43.2275 11.5114 43.3213 11.2036 43.5107 10.9403C43.7019 10.6771 43.9643 10.4716 44.2976 10.3239C44.6309 10.1761 45.0097 10.1023 45.4339 10.1023C45.8658 10.1023 46.2427 10.1761 46.5646 10.3239C46.8885 10.4716 47.1404 10.6771 47.3203 10.9403C47.5002 11.2036 47.593 11.5085 47.5987 11.8551H46.4197ZM48.5057 16V10.1818H49.7358V12.5824H52.233V10.1818H53.4602V16H52.233V13.5966H49.7358V16H48.5057ZM61.6726 13.0909C61.6726 13.7254 61.5523 14.2652 61.3118 14.7102C61.0732 15.1553 60.7474 15.4953 60.3345 15.7301C59.9235 15.9631 59.4614 16.0795 58.9482 16.0795C58.4311 16.0795 57.9671 15.9621 57.5561 15.7273C57.1451 15.4924 56.8203 15.1525 56.5817 14.7074C56.343 14.2623 56.2237 13.7235 56.2237 13.0909C56.2237 12.4564 56.343 11.9167 56.5817 11.4716C56.8203 11.0265 57.1451 10.6875 57.5561 10.4545C57.9671 10.2197 58.4311 10.1023 58.9482 10.1023C59.4614 10.1023 59.9235 10.2197 60.3345 10.4545C60.7474 10.6875 61.0732 11.0265 61.3118 11.4716C61.5523 11.9167 61.6726 12.4564 61.6726 13.0909ZM60.4254 13.0909C60.4254 12.6799 60.3639 12.3333 60.2408 12.0511C60.1196 11.7689 59.9482 11.5549 59.7266 11.4091C59.505 11.2633 59.2455 11.1903 58.9482 11.1903C58.6508 11.1903 58.3913 11.2633 58.1697 11.4091C57.9482 11.5549 57.7758 11.7689 57.6527 12.0511C57.5315 12.3333 57.4709 12.6799 57.4709 13.0909C57.4709 13.5019 57.5315 13.8485 57.6527 14.1307C57.7758 14.4129 57.9482 14.6269 58.1697 14.7727C58.3913 14.9186 58.6508 14.9915 58.9482 14.9915C59.2455 14.9915 59.505 14.9186 59.7266 14.7727C59.9482 14.6269 60.1196 14.4129 60.2408 14.1307C60.3639 13.8485 60.4254 13.5019 60.4254 13.0909ZM67.4503 10.1818V16H66.3878L63.8565 12.3381H63.8139V16H62.5838V10.1818H63.6634L66.1747 13.8409H66.2259V10.1818H67.4503ZM33.5682 26H31.5057V20.1818H33.5852C34.1705 20.1818 34.6742 20.2983 35.0966 20.5312C35.5189 20.7623 35.8438 21.0947 36.071 21.5284C36.3002 21.9621 36.4148 22.4811 36.4148 23.0852C36.4148 23.6913 36.3002 24.2121 36.071 24.6477C35.8438 25.0833 35.517 25.4176 35.0909 25.6506C34.6667 25.8835 34.1591 26 33.5682 26ZM32.7358 24.946H33.517C33.8807 24.946 34.1866 24.8816 34.4347 24.7528C34.6847 24.6222 34.8722 24.4205 34.9972 24.1477C35.1241 23.8731 35.1875 23.5189 35.1875 23.0852C35.1875 22.6553 35.1241 22.304 34.9972 22.0312C34.8722 21.7585 34.6856 21.5578 34.4375 21.429C34.1894 21.3002 33.8835 21.2358 33.5199 21.2358H32.7358V24.946ZM37.326 26V20.1818H41.2464V21.196H38.5561V22.5824H41.0447V23.5966H38.5561V24.9858H41.2578V26H37.326ZM42.2244 26V20.1818H43.4545V24.9858H45.9489V26H42.2244ZM47.9936 20.1818V26H46.7635V20.1818H47.9936ZM50.0568 20.1818L51.4631 24.6023H51.517L52.9261 20.1818H54.2898L52.2841 26H50.6989L48.6903 20.1818H50.0568ZM54.9901 26V20.1818H58.9105V21.196H56.2202V22.5824H58.7088V23.5966H56.2202V24.9858H58.9219V26H54.9901ZM59.8885 26V20.1818H62.1839C62.6233 20.1818 62.9983 20.2604 63.3089 20.4176C63.6214 20.5729 63.8591 20.7936 64.022 21.0795C64.1868 21.3636 64.2692 21.6979 64.2692 22.0824C64.2692 22.4687 64.1858 22.8011 64.0192 23.0795C63.8525 23.3561 63.611 23.5682 63.2947 23.7159C62.9804 23.8636 62.5997 23.9375 62.1527 23.9375H60.6158V22.9489H61.9538C62.1887 22.9489 62.3838 22.9167 62.5391 22.8523C62.6944 22.7879 62.8099 22.6913 62.8857 22.5625C62.9633 22.4337 63.0021 22.2737 63.0021 22.0824C63.0021 21.8892 62.9633 21.7263 62.8857 21.5938C62.8099 21.4612 62.6934 21.3608 62.5362 21.2926C62.3809 21.2225 62.1849 21.1875 61.9482 21.1875H61.1186V26H59.8885ZM63.0305 23.3523L64.4766 26H63.1186L61.7038 23.3523H63.0305ZM64.5554 20.1818H65.9332L67.2599 22.6875H67.3168L68.6435 20.1818H70.0213L67.8991 23.9432V26H66.6776V23.9432L64.5554 20.1818Z" fill="#793200"/>
<g style="mix-blend-mode:multiply" opacity="0.5">
<path d="M15.783 27.9528C19.8041 27.9528 23.064 27.5826 23.064 27.1258C23.064 26.6691 19.8041 26.2988 15.783 26.2988C11.7618 26.2988 8.50195 26.6691 8.50195 27.1258C8.50195 27.5826 11.7618 27.9528 15.783 27.9528Z" fill="#BCBCBC"/>
</g>
<path d="M15.5974 27.2534C21.1374 27.2534 25.6284 22.7624 25.6284 17.2224C25.6284 11.6824 21.1374 7.19141 15.5974 7.19141C10.0574 7.19141 5.56641 11.6824 5.56641 17.2224C5.56641 22.7624 10.0574 27.2534 15.5974 27.2534Z" fill="#FDD13A"/>
<path d="M23.0645 17.0635C23.0645 18.5716 22.6173 20.0458 21.7794 21.2997C20.9416 22.5536 19.7507 23.5309 18.3574 24.1081C16.9641 24.6852 15.431 24.8362 13.9519 24.542C12.4728 24.2478 11.1141 23.5215 10.0478 22.4552C8.98139 21.3888 8.25518 20.0301 7.96097 18.551C7.66676 17.0719 7.81776 15.5388 8.39488 14.1455C8.97199 12.7522 9.94931 11.5614 11.2032 10.7235C12.4572 9.88568 13.9314 9.43848 15.4395 9.43848C17.4617 9.43848 19.4012 10.2418 20.8311 11.6718C22.2611 13.1018 23.0645 15.0412 23.0645 17.0635Z" fill="#C4990E"/>
<path d="M23.2794 17.3814C23.2794 18.8691 22.8383 20.3234 22.0119 21.5604C21.1855 22.7975 20.0108 23.7617 18.6365 24.3313C17.2621 24.9008 15.7498 25.0501 14.2906 24.7602C12.8314 24.4703 11.4909 23.7543 10.4386 22.7027C9.3863 21.6511 8.66941 20.3111 8.37856 18.8521C8.08772 17.3931 8.23599 15.8807 8.80462 14.5059C9.37325 13.1312 10.3367 11.9559 11.5732 11.1287C12.8097 10.3014 14.2637 9.85939 15.7514 9.8584C16.7398 9.85774 17.7186 10.0518 18.6319 10.4296C19.5452 10.8074 20.3751 11.3614 21.0742 12.0601C21.7733 12.7587 22.3279 13.5883 22.7063 14.5013C23.0846 15.4144 23.2794 16.393 23.2794 17.3814Z" fill="white"/>
<path d="M18.9962 13.0993H16.5452C17.0259 13.5308 17.3236 14.1296 17.3772 14.7733H18.9972V15.5933H17.3972C17.3366 16.3964 16.96 17.1428 16.3501 17.6687C15.7401 18.1947 14.9465 18.4574 14.1432 18.3993C15.3022 19.7283 16.5652 21.3993 17.8132 23.0923H16.3812C15.2222 21.5503 14.1372 20.1223 12.7412 18.4813V17.4643H13.5582C15.1582 17.4643 16.0242 16.7263 16.1292 15.5943H12.7412V14.7743H16.0842C15.8762 13.8223 15.0842 13.3473 13.7962 13.3473H12.7412V12.2793H18.9962V13.0993Z" fill="#793200"/>
</svg>
