<svg width="14" height="18" viewBox="0 0 14 18" fill="none" xmlns="http://www.w3.org/2000/svg">
<path d="M0 6.4606C0 5.70477 0.158366 4.95433 0.476897 4.21109C0.795428 3.46785 1.25073 2.7768 1.8446 2.14154C2.43847 1.50627 3.2177 0.989786 4.1841 0.593872C5.15049 0.197957 6.22126 0 7.3964 0C9.30399 0 10.8697 0.588473 12.0934 1.76362C13.3171 2.93876 13.929 4.32447 13.929 5.92072C13.929 7.97228 13.4107 9.66751 12.3723 11.0046C11.334 12.3417 9.99324 13.0112 8.35019 13.0112C7.81031 13.0112 7.30282 12.8852 6.82952 12.6333C6.35623 12.3813 6.0233 12.0754 5.83074 11.7155L5.1109 14.5589C5.05151 14.7874 4.97233 15.0178 4.87695 15.2517C4.78157 15.4857 4.67539 15.7106 4.56201 15.9266C4.44864 16.1425 4.33346 16.3459 4.22009 16.5384C4.10671 16.731 3.99154 16.9109 3.87816 17.0783C3.76479 17.2457 3.66581 17.3878 3.58123 17.5012C3.49664 17.6146 3.41926 17.7136 3.34728 17.7982L3.2393 17.9421C3.20331 17.9907 3.15472 18.0087 3.09533 17.9961C3.03594 17.9835 2.99995 17.9475 2.98735 17.8881C2.98735 17.8755 2.97836 17.7928 2.96036 17.6362C2.94236 17.4796 2.92437 17.3159 2.90637 17.1413C2.88838 16.9667 2.87038 16.7418 2.85238 16.4664C2.83439 16.1911 2.82899 15.923 2.83439 15.6656C2.83979 15.4083 2.85778 15.1221 2.88838 14.8108C2.91897 14.4995 2.96396 14.2115 3.02335 13.947C3.15472 13.3837 3.59922 11.5049 4.35506 8.3142C4.25968 8.12164 4.1805 7.89129 4.12111 7.62135C4.06172 7.35141 4.03113 7.13186 4.03113 6.96449L4.01313 6.69455C4.01313 5.92612 4.20749 5.28726 4.59801 4.77797C4.98852 4.26868 5.45822 4.01313 6.0107 4.01313C6.4552 4.01313 6.79893 4.1607 7.04548 4.45404C7.29202 4.74737 7.4144 5.11629 7.4144 5.5608C7.4144 5.83614 7.36401 6.17626 7.26143 6.57758C7.15885 6.97889 7.02388 7.44139 6.85652 7.96328C6.68915 8.48517 6.56858 8.90807 6.4966 9.232C6.37602 9.77189 6.4822 10.2398 6.81153 10.6357C7.14086 11.0316 7.58176 11.2296 8.13424 11.2296C9.08264 11.2296 9.86547 10.6933 10.4827 9.61892C11.1 8.54455 11.4095 7.24703 11.4095 5.72276C11.4095 4.55841 11.0316 3.60822 10.2758 2.87038C9.51994 2.13254 8.46357 1.76362 7.10846 1.76362C5.59679 1.76362 4.36946 2.24951 3.42826 3.2213C2.48706 4.19309 2.01556 5.35744 2.01556 6.71255C2.01556 7.51698 2.24411 8.19363 2.69942 8.74611C2.85598 8.92607 2.90277 9.11863 2.84339 9.32199C2.81999 9.38137 2.784 9.51994 2.73541 9.7359C2.68682 9.95185 2.65083 10.0904 2.62743 10.1498C2.60404 10.2812 2.54285 10.3694 2.44747 10.4107C2.35209 10.4521 2.24411 10.4503 2.12354 10.4018C1.41629 10.1138 0.885409 9.61892 0.530885 8.91707C0.176362 8.21522 0 7.3964 0 6.4606Z" fill="black"/>
</svg>
