<svg width="21" height="18" viewBox="0 0 21 18" fill="none" xmlns="http://www.w3.org/2000/svg">
<path d="M21 2.13215C20.4152 3.05 19.6978 3.83241 18.8477 4.4794C18.8561 4.65292 18.8603 4.84905 18.8603 5.06777C18.8603 6.28304 18.6923 7.49979 18.3565 8.718C18.0207 9.93623 17.5077 11.1023 16.8176 12.2162C16.1274 13.3301 15.3054 14.3169 14.3513 15.1766C13.3973 16.0363 12.2506 16.7218 10.911 17.2331C9.5715 17.7444 8.13588 18 6.60418 18C4.2137 18 2.01231 17.319 0 15.9571C0.357161 15.9991 0.699709 16.02 1.02764 16.02C3.02469 16.02 4.80838 15.371 6.3787 14.0729C5.44756 14.0548 4.61366 13.7524 3.87699 13.1655C3.14032 12.5786 2.63336 11.8287 2.35611 10.9157C2.63015 10.9708 2.90062 10.9983 3.16752 10.9983C3.5517 10.9983 3.92973 10.9455 4.30161 10.8397C3.30791 10.6297 2.48356 10.1075 1.82854 9.273C1.17355 8.43853 0.846054 7.47539 0.846054 6.38359V6.32732C1.45599 6.68367 2.10658 6.87322 2.79783 6.89597C2.20917 6.48188 1.74245 5.94188 1.39768 5.27599C1.05288 4.6101 0.880479 3.88949 0.880479 3.11416C0.880479 2.29644 1.07467 1.535 1.46305 0.829817C2.54367 2.2291 3.85308 3.34745 5.39126 4.18487C6.92947 5.0223 8.57967 5.48738 10.3419 5.58012C10.2667 5.2496 10.2291 4.9047 10.2289 4.54539C10.2289 3.29084 10.6497 2.21964 11.4912 1.33178C12.3327 0.443928 13.3479 0 14.5368 0C15.7816 0 16.8301 0.478265 17.6823 1.4348C18.656 1.23129 19.5676 0.863195 20.4173 0.330516C20.09 1.41759 19.4592 2.2562 18.525 2.84634C19.3836 2.73867 20.2086 2.50061 21 2.13215H21Z" fill="#0D2122"/>
</svg>
