<svg width="24" height="24" viewBox="0 0 24 24" fill="none" xmlns="http://www.w3.org/2000/svg">
<path d="M22.5408 6.49936C22.4156 6.01538 22.1701 5.57402 21.8288 5.21945C21.4875 4.86488 21.0625 4.60954 20.5962 4.47898C18.8799 4 12 4 12 4C12 4 5.12009 4 3.40379 4.47643C2.93733 4.60657 2.51207 4.86177 2.17073 5.21641C1.82939 5.57104 1.58398 6.01263 1.45915 6.49682C1 8.28025 1 12 1 12C1 12 1 15.7197 1.45915 17.5006C1.71205 18.4841 2.45848 19.2586 3.40379 19.521C5.12009 20 12 20 12 20C12 20 18.8799 20 20.5962 19.521C21.544 19.2586 22.2879 18.4841 22.5408 17.5006C23 15.7197 23 12 23 12C23 12 23 8.28026 22.5408 6.49936ZM9.81473 15.414V8.58599L15.5112 11.9745L9.81473 15.414Z" fill="#0D2122"/>
</svg>
