<svg xmlns="http://www.w3.org/2000/svg" width="422.277" height="452.635" viewBox="0 0 422.277 452.635">
  <g id="Group_319" data-name="Group 319" transform="translate(-54.421 -16.239)">
    <g id="Screen">
      <g id="Group_85" data-name="Group 85">
        <g id="Group_36" data-name="Group 36">
          <rect id="Rectangle_1" data-name="Rectangle 1" width="390.852" height="25.038" transform="translate(54.681 65.604)" fill="#e0e0e0"/>
        </g>
        <g id="Group_37" data-name="Group 37">
          <rect id="Rectangle_2" data-name="Rectangle 2" width="390.852" height="219.199" transform="translate(54.623 113.644)" fill="#fff"/>
        </g>
        <g id="Group_38" data-name="Group 38">
          <path id="Path_14" data-name="Path 14" d="M54.681,90.455h53.665l5.318-15.487h86.992l5.318,15.487H445.533v23.711H54.681Z" fill="#ebebeb"/>
        </g>
        <g id="Group_39" data-name="Group 39">
          <path id="Path_15" data-name="Path 15" d="M67.58,75.587a2.938,2.938,0,1,1-2.937-2.938A2.937,2.937,0,0,1,67.58,75.587Z" fill="#263238"/>
        </g>
        <g id="Group_40" data-name="Group 40">
          <path id="Path_16" data-name="Path 16" d="M76.67,75.587a2.937,2.937,0,1,1-2.937-2.938A2.937,2.937,0,0,1,76.67,75.587Z" fill="#263238"/>
        </g>
        <g id="Group_41" data-name="Group 41">
          <path id="Path_17" data-name="Path 17" d="M85.761,75.587a2.938,2.938,0,1,1-2.938-2.938A2.937,2.937,0,0,1,85.761,75.587Z" fill="#263238"/>
        </g>
        <g id="Group_42" data-name="Group 42">
          <path id="Path_18" data-name="Path 18" d="M402.331,109.452H134.181a7.441,7.441,0,0,1-7.442-7.442h0a7.441,7.441,0,0,1,7.442-7.442h268.15a7.441,7.441,0,0,1,7.442,7.442h0A7.442,7.442,0,0,1,402.331,109.452Z" fill="#fafafa"/>
        </g>
        <g id="Group_43" data-name="Group 43">
          <path id="Path_19" data-name="Path 19" d="M140.6,103v2.514h-1.273V103.2c0-.711-.327-1.037-.89-1.037-.612,0-1.053.375-1.053,1.184v2.171h-1.274V99.458h1.274v2.122a1.929,1.929,0,0,1,1.4-.522A1.721,1.721,0,0,1,140.6,103Z" fill="#e0e0e0"/>
          <path id="Path_20" data-name="Path 20" d="M144.585,105.3a1.828,1.828,0,0,1-1.037.277A1.447,1.447,0,0,1,141.907,104V102.2h-.677v-.979h.677v-1.069h1.274v1.069h1.094v.979h-1.094v1.789a.512.512,0,0,0,.547.579.86.86,0,0,0,.514-.163Z" fill="#e0e0e0"/>
          <path id="Path_21" data-name="Path 21" d="M148.039,105.3a1.828,1.828,0,0,1-1.037.277A1.447,1.447,0,0,1,145.361,104V102.2h-.677v-.979h.677v-1.069h1.274v1.069h1.094v.979h-1.094v1.789a.512.512,0,0,0,.547.579.86.86,0,0,0,.514-.163Z" fill="#e0e0e0"/>
          <path id="Path_22" data-name="Path 22" d="M153.542,103.319a2.133,2.133,0,0,1-2.188,2.261,1.7,1.7,0,0,1-1.322-.53V107.1h-1.274v-5.976h1.217v.506a1.7,1.7,0,0,1,1.379-.571A2.133,2.133,0,0,1,153.542,103.319Zm-1.29,0a1.122,1.122,0,1,0-1.118,1.216A1.108,1.108,0,0,0,152.252,103.319Z" fill="#e0e0e0"/>
          <path id="Path_23" data-name="Path 23" d="M154.082,101.849a.792.792,0,0,1,1.584,0,.792.792,0,1,1-1.584,0Zm0,2.931a.792.792,0,0,1,1.584,0,.792.792,0,1,1-1.584,0Z" fill="#e0e0e0"/>
          <path id="Path_24" data-name="Path 24" d="M158.8,98.641h1.135l-2.694,7.69h-1.135Z" fill="#e0e0e0"/>
          <path id="Path_25" data-name="Path 25" d="M161.406,98.641h1.135l-2.694,7.69h-1.135Z" fill="#e0e0e0"/>
        </g>
        <g id="Group_47" data-name="Group 47">
          <g id="Group_44" data-name="Group 44">
            <path id="Path_26" data-name="Path 26" d="M402.089,153.063H168.463a13.191,13.191,0,0,1-13.191-13.191h0a13.191,13.191,0,0,1,13.191-13.191H402.089a13.191,13.191,0,0,1,13.191,13.191h0A13.191,13.191,0,0,1,402.089,153.063Z" fill="#fafafa"/>
          </g>
          <g id="Group_46" data-name="Group 46">
            <g id="Group_45" data-name="Group 45">
              <path id="Path_27" data-name="Path 27" d="M402.089,153.063a13.923,13.923,0,0,0,5.4-1.223,13.265,13.265,0,0,0,7.1-8.033,13.3,13.3,0,0,0,.546-4.829,12.975,12.975,0,0,0-5.416-9.7,12.934,12.934,0,0,0-6.042-2.356,30.61,30.61,0,0,0-3.491-.1l-3.643.006-33.587.038-194.478.076a12.934,12.934,0,0,0-6.047,24.365,13.28,13.28,0,0,0,6.487,1.5l13.547,0,51.636.016,87.433.055,58.944.083,16.026.049,4.167.026c.939.009,1.42.027,1.42.027s-.481.017-1.42.026l-4.167.026-16.026.049-58.944.083L234.1,153.3l-51.636.016-13.547,0a13.813,13.813,0,0,1-6.729-1.557,13.454,13.454,0,0,1,6.289-25.342l194.478.076,33.587.038,3.643.006a30.486,30.486,0,0,1,3.523.113,13.191,13.191,0,0,1,6.155,2.422,13.212,13.212,0,0,1,2.914,18.637,13.175,13.175,0,0,1-5.245,4.223,13.625,13.625,0,0,1-4.021,1.074C402.57,153.063,402.089,153.063,402.089,153.063Z" fill="#263238"/>
            </g>
          </g>
        </g>
        <g id="Group_48" data-name="Group 48">
          <path id="Path_28" data-name="Path 28" d="M173.816,142.681l.5-1.106a3.727,3.727,0,0,0,2.093.662c.87,0,1.224-.29,1.224-.68,0-1.187-3.689-.372-3.689-2.728,0-1.079.87-1.976,2.674-1.976a4.252,4.252,0,0,1,2.2.562l-.453,1.115a3.585,3.585,0,0,0-1.758-.5c-.871,0-1.206.326-1.206.725,0,1.169,3.689.362,3.689,2.692,0,1.06-.879,1.966-2.692,1.966A4.522,4.522,0,0,1,173.816,142.681Z" fill="#e0e0e0"/>
          <path id="Path_29" data-name="Path 29" d="M184.75,141.267h-3.689a1.3,1.3,0,0,0,1.4.979,1.653,1.653,0,0,0,1.223-.471l.753.816a2.559,2.559,0,0,1-2.013.788,2.531,2.531,0,0,1-2.782-2.51,2.482,2.482,0,0,1,2.6-2.511,2.414,2.414,0,0,1,2.538,2.529C184.777,140.995,184.759,141.149,184.75,141.267Zm-3.707-.825h2.4a1.217,1.217,0,0,0-2.4,0Z" fill="#e0e0e0"/>
          <path id="Path_30" data-name="Path 30" d="M189.9,140.524v2.783h-1.323V142.7a1.6,1.6,0,0,1-1.487.68c-1.142,0-1.821-.634-1.821-1.477,0-.862.607-1.46,2.093-1.46h1.124c0-.607-.362-.96-1.124-.96a2.342,2.342,0,0,0-1.4.453l-.508-.988a3.743,3.743,0,0,1,2.1-.589C189.04,138.358,189.9,139.047,189.9,140.524Zm-1.414,1.241v-.5h-.97c-.661,0-.87.245-.87.571,0,.354.3.589.8.589A1.041,1.041,0,0,0,188.487,141.765Z" fill="#e0e0e0"/>
          <path id="Path_31" data-name="Path 31" d="M194.209,138.358v1.3c-.118-.009-.208-.018-.317-.018A1.2,1.2,0,0,0,192.6,141v2.3h-1.414V138.43h1.35v.644A1.968,1.968,0,0,1,194.209,138.358Z" fill="#e0e0e0"/>
          <path id="Path_32" data-name="Path 32" d="M194.647,140.869a2.52,2.52,0,0,1,2.719-2.511,2.241,2.241,0,0,1,2.184,1.241l-1.1.589a1.214,1.214,0,0,0-1.1-.67,1.353,1.353,0,0,0,0,2.7,1.2,1.2,0,0,0,1.1-.671l1.1.6a2.262,2.262,0,0,1-2.184,1.233A2.52,2.52,0,0,1,194.647,140.869Z" fill="#e0e0e0"/>
          <path id="Path_33" data-name="Path 33" d="M205.317,140.515v2.792H203.9v-2.575c0-.788-.362-1.151-.987-1.151-.68,0-1.17.417-1.17,1.314v2.412h-1.413v-6.726h1.413v2.357a2.143,2.143,0,0,1,1.55-.58A1.911,1.911,0,0,1,205.317,140.515Z" fill="#e0e0e0"/>
          <path id="Path_34" data-name="Path 34" d="M208.82,142.49a.88.88,0,0,1,1.759,0,.88.88,0,1,1-1.759,0Z" fill="#e0e0e0"/>
          <path id="Path_35" data-name="Path 35" d="M211.2,142.49a.88.88,0,0,1,1.759,0,.88.88,0,1,1-1.759,0Z" fill="#e0e0e0"/>
          <path id="Path_36" data-name="Path 36" d="M213.572,142.49a.88.88,0,0,1,1.759,0,.88.88,0,1,1-1.759,0Z" fill="#e0e0e0"/>
        </g>
        <g id="Group_50" data-name="Group 50">
          <g id="Group_49" data-name="Group 49">
            <path id="Path_37" data-name="Path 37" d="M128.069,176.024c0,.144-9.376.26-20.94.26s-20.943-.116-20.943-.26,9.374-.261,20.943-.261S128.069,175.88,128.069,176.024Z"/>
          </g>
        </g>
        <g id="Group_51" data-name="Group 51">
          <rect id="Rectangle_3" data-name="Rectangle 3" width="43.518" height="43.518" transform="translate(86.186 187.99)" fill="#6fbabd"/>
        </g>
        <g id="Group_53" data-name="Group 53">
          <g id="Group_52" data-name="Group 52">
            <path id="Path_38" data-name="Path 38" d="M394.155,198.248c0,.144-54.021.26-120.643.26-66.645,0-120.654-.116-120.654-.26s54.009-.261,120.654-.261C340.134,197.987,394.155,198.1,394.155,198.248Z"/>
          </g>
        </g>
        <g id="Group_55" data-name="Group 55">
          <g id="Group_54" data-name="Group 54">
            <path id="Path_39" data-name="Path 39" d="M218.855,214.633c0,.144-14.235.26-31.79.26s-31.793-.116-31.793-.26,14.232-.261,31.793-.261S218.855,214.489,218.855,214.633Z"/>
          </g>
        </g>
        <g id="Group_57" data-name="Group 57">
          <g id="Group_56" data-name="Group 56">
            <path id="Path_40" data-name="Path 40" d="M355.586,229.825c0,.144-44.845.261-100.152.261-55.326,0-100.162-.117-100.162-.261s44.836-.26,100.162-.26C310.741,229.565,355.586,229.681,355.586,229.825Z" fill="#e0e0e0"/>
          </g>
        </g>
        <g id="Group_59" data-name="Group 59">
          <g id="Group_58" data-name="Group 58">
            <path id="Path_41" data-name="Path 41" d="M128.069,253.97c0,.144-9.376.26-20.94.26s-20.943-.116-20.943-.26,9.374-.26,20.943-.26S128.069,253.826,128.069,253.97Z"/>
          </g>
        </g>
        <g id="Group_60" data-name="Group 60">
          <rect id="Rectangle_4" data-name="Rectangle 4" width="43.518" height="43.518" transform="translate(86.186 265.937)" fill="#6fbabd"/>
        </g>
        <g id="Group_62" data-name="Group 62">
          <g id="Group_61" data-name="Group 61">
            <path id="Path_42" data-name="Path 42" d="M408.491,276.194c0,.144-57.23.26-127.811.26-70.6,0-127.822-.116-127.822-.26s57.217-.26,127.822-.26C351.261,275.934,408.491,276.05,408.491,276.194Z"/>
          </g>
        </g>
        <g id="Group_64" data-name="Group 64">
          <g id="Group_63" data-name="Group 63">
            <path id="Path_43" data-name="Path 43" d="M218.855,292.579c0,.144-14.235.26-31.79.26s-31.793-.116-31.793-.26,14.232-.26,31.793-.26S218.855,292.435,218.855,292.579Z"/>
          </g>
        </g>
        <g id="Group_66" data-name="Group 66">
          <g id="Group_65" data-name="Group 65">
            <path id="Path_44" data-name="Path 44" d="M390.473,307.771c0,.144-52.656.261-117.6.261-64.961,0-117.606-.117-117.606-.261s52.645-.26,117.606-.26C337.817,307.511,390.473,307.628,390.473,307.771Z" fill="#e0e0e0"/>
          </g>
        </g>
        <g id="Group_68" data-name="Group 68">
          <g id="Group_67" data-name="Group 67">
            <path id="Path_45" data-name="Path 45" d="M445.533,333.365c0-1.714-.082-104.792-.209-267.761l.209.209-390.82.051h-.032l.26-.26c-.008,95.574-.015,186.386-.022,267.761l-.238-.237,390.852.237L54.681,333.6h-.238v-.239c-.007-81.375-.014-172.187-.022-267.761v-.261h.292l390.82.052h.21V65.6C445.615,228.573,445.535,331.653,445.533,333.365Z" fill="#263238"/>
          </g>
        </g>
        <g id="Group_70" data-name="Group 70">
          <g id="Group_69" data-name="Group 69">
            <path id="Path_46" data-name="Path 46" d="M190.1,85c0,.143-13.8.26-30.82.26s-30.823-.117-30.823-.26,13.8-.261,30.823-.261S190.1,84.86,190.1,85Z"/>
          </g>
        </g>
        <g id="Group_71" data-name="Group 71">
          <rect id="Rectangle_5" data-name="Rectangle 5" width="54.742" height="16.49" transform="translate(79.757 134.224)" fill="#455a64"/>
        </g>
        <g id="Group_73" data-name="Group 73">
          <g id="Group_72" data-name="Group 72">
            <path id="Path_47" data-name="Path 47" d="M231.431,177.413c0,.144-17.022.26-38.015.26s-38.017-.116-38.017-.26,17.018-.26,38.017-.26S231.431,177.269,231.431,177.413Z" fill="#6fbabd"/>
          </g>
        </g>
        <g id="Group_75" data-name="Group 75">
          <g id="Group_74" data-name="Group 74">
            <path id="Path_48" data-name="Path 48" d="M231.431,253.97c0,.144-17.022.26-38.015.26s-38.017-.116-38.017-.26,17.018-.26,38.017-.26S231.431,253.826,231.431,253.97Z" fill="#6fbabd"/>
          </g>
        </g>
        <g id="Group_78" data-name="Group 78">
          <g id="Group_76" data-name="Group 76">
            <path id="Path_49" data-name="Path 49" d="M397.06,144.261a6.354,6.354,0,1,1,6.355-6.354A6.361,6.361,0,0,1,397.06,144.261Zm0-11.708a5.354,5.354,0,1,0,5.355,5.354A5.36,5.36,0,0,0,397.06,132.553Z" fill="#6fbabd"/>
          </g>
          <g id="Group_77" data-name="Group 77">
            <path id="Path_50" data-name="Path 50" d="M404.866,147.08a.5.5,0,0,1-.353-.145l-4.14-4.111a.5.5,0,0,1,.705-.71l4.14,4.111a.5.5,0,0,1,0,.707A.493.493,0,0,1,404.866,147.08Z" fill="#6fbabd"/>
          </g>
        </g>
        <g id="Group_80" data-name="Group 80">
          <g id="Group_79" data-name="Group 79">
            <path id="Path_51" data-name="Path 51" d="M299.881,213.507c0,.144-16.376.261-36.572.261s-36.576-.117-36.576-.261,16.372-.26,36.576-.26S299.881,213.364,299.881,213.507Z"/>
          </g>
        </g>
        <g id="Group_82" data-name="Group 82">
          <g id="Group_81" data-name="Group 81">
            <path id="Path_52" data-name="Path 52" d="M347.146,212.382c0,.144-8.566.26-19.13.26s-19.132-.116-19.132-.26,8.564-.26,19.132-.26S347.146,212.238,347.146,212.382Z"/>
          </g>
        </g>
        <g id="Group_84" data-name="Group 84">
          <g id="Group_83" data-name="Group 83">
            <path id="Path_53" data-name="Path 53" d="M299.535,292.579c0,.144-16.377.26-36.573.26s-36.576-.116-36.576-.26,16.373-.26,36.576-.26S299.535,292.435,299.535,292.579Z"/>
          </g>
        </g>
      </g>
    </g>
    <g id="Character">
      <g id="Group_294" data-name="Group 294">
        <g id="Group_180" data-name="Group 180">
          <g id="Group_179" data-name="Group 179">
            <g id="Group_178" data-name="Group 178">
              <g id="Group_112" data-name="Group 112">
                <g id="Group_111" data-name="Group 111">
                  <g id="Group_110" data-name="Group 110">
                    <g id="Group_109" data-name="Group 109">
                      <g id="Group_108" data-name="Group 108">
                        <g id="Group_107" data-name="Group 107">
                          <g id="Group_106" data-name="Group 106">
                            <g id="Group_105" data-name="Group 105">
                              <g id="Group_104" data-name="Group 104">
                                <g id="Group_103" data-name="Group 103">
                                  <path id="Path_64" data-name="Path 64" d="M270.02,448.086v20.769l41.881-.2c-.3-4.212-23.29-12.614-23.29-12.614l.457-7.952Z" fill="#455a64"/>
                                </g>
                              </g>
                            </g>
                          </g>
                        </g>
                      </g>
                    </g>
                  </g>
                </g>
              </g>
              <g id="Group_123" data-name="Group 123" opacity="0.6">
                <g id="Group_122" data-name="Group 122">
                  <g id="Group_121" data-name="Group 121">
                    <g id="Group_120" data-name="Group 120">
                      <g id="Group_119" data-name="Group 119">
                        <g id="Group_118" data-name="Group 118">
                          <g id="Group_117" data-name="Group 117">
                            <g id="Group_116" data-name="Group 116">
                              <g id="Group_115" data-name="Group 115">
                                <g id="Group_114" data-name="Group 114">
                                  <g id="Group_113" data-name="Group 113">
                                    <path id="Path_65" data-name="Path 65" d="M276.794,454.158a1.816,1.816,0,0,0-1.147,2.075,1.632,1.632,0,0,0,1.932,1.224,1.916,1.916,0,0,0,1.2-2.2,1.67,1.67,0,0,0-2.143-1.037" fill="#fff"/>
                                  </g>
                                </g>
                              </g>
                            </g>
                          </g>
                        </g>
                      </g>
                    </g>
                  </g>
                </g>
              </g>
              <g id="Group_133" data-name="Group 133">
                <g id="Group_132" data-name="Group 132">
                  <g id="Group_131" data-name="Group 131">
                    <g id="Group_130" data-name="Group 130">
                      <g id="Group_129" data-name="Group 129">
                        <g id="Group_128" data-name="Group 128">
                          <g id="Group_127" data-name="Group 127">
                            <g id="Group_126" data-name="Group 126">
                              <g id="Group_125" data-name="Group 125">
                                <g id="Group_124" data-name="Group 124">
                                  <path id="Path_66" data-name="Path 66" d="M270.02,468.855v-3.318l39.985.473s2.085,1.255,1.9,2.642Z" fill="#263238"/>
                                </g>
                              </g>
                            </g>
                          </g>
                        </g>
                      </g>
                    </g>
                  </g>
                </g>
              </g>
              <g id="Group_144" data-name="Group 144">
                <g id="Group_143" data-name="Group 143">
                  <g id="Group_142" data-name="Group 142">
                    <g id="Group_141" data-name="Group 141">
                      <g id="Group_140" data-name="Group 140">
                        <g id="Group_139" data-name="Group 139">
                          <g id="Group_138" data-name="Group 138">
                            <g id="Group_137" data-name="Group 137">
                              <g id="Group_136" data-name="Group 136">
                                <g id="Group_135" data-name="Group 135">
                                  <g id="Group_134" data-name="Group 134">
                                    <path id="Path_67" data-name="Path 67" d="M288.61,456.439c0,.216-1.019.329-2.01,1.037-1.009.681-1.512,1.622-1.7,1.539-.188-.039.1-1.331,1.311-2.166S288.652,456.241,288.61,456.439Z" fill="#263238"/>
                                  </g>
                                </g>
                              </g>
                            </g>
                          </g>
                        </g>
                      </g>
                    </g>
                  </g>
                </g>
              </g>
              <g id="Group_155" data-name="Group 155">
                <g id="Group_154" data-name="Group 154">
                  <g id="Group_153" data-name="Group 153">
                    <g id="Group_152" data-name="Group 152">
                      <g id="Group_151" data-name="Group 151">
                        <g id="Group_150" data-name="Group 150">
                          <g id="Group_149" data-name="Group 149">
                            <g id="Group_148" data-name="Group 148">
                              <g id="Group_147" data-name="Group 147">
                                <g id="Group_146" data-name="Group 146">
                                  <g id="Group_145" data-name="Group 145">
                                    <path id="Path_68" data-name="Path 68" d="M294.1,458.361c.05.208-.826.588-1.5,1.51-.7.9-.864,1.888-1.066,1.882-.191.037-.35-1.223.514-2.352S294.09,458.156,294.1,458.361Z" fill="#263238"/>
                                  </g>
                                </g>
                              </g>
                            </g>
                          </g>
                        </g>
                      </g>
                    </g>
                  </g>
                </g>
              </g>
              <g id="Group_166" data-name="Group 166">
                <g id="Group_165" data-name="Group 165">
                  <g id="Group_164" data-name="Group 164">
                    <g id="Group_163" data-name="Group 163">
                      <g id="Group_162" data-name="Group 162">
                        <g id="Group_161" data-name="Group 161">
                          <g id="Group_160" data-name="Group 160">
                            <g id="Group_159" data-name="Group 159">
                              <g id="Group_158" data-name="Group 158">
                                <g id="Group_157" data-name="Group 157">
                                  <g id="Group_156" data-name="Group 156">
                                    <path id="Path_69" data-name="Path 69" d="M296.566,463.654c-.185.049-.483-1.023.023-2.211s1.45-1.672,1.538-1.494c.118.175-.491.818-.892,1.8C296.813,462.72,296.767,463.63,296.566,463.654Z" fill="#263238"/>
                                  </g>
                                </g>
                              </g>
                            </g>
                          </g>
                        </g>
                      </g>
                    </g>
                  </g>
                </g>
              </g>
              <g id="Group_177" data-name="Group 177">
                <g id="Group_176" data-name="Group 176">
                  <g id="Group_175" data-name="Group 175">
                    <g id="Group_174" data-name="Group 174">
                      <g id="Group_173" data-name="Group 173">
                        <g id="Group_172" data-name="Group 172">
                          <g id="Group_171" data-name="Group 171">
                            <g id="Group_170" data-name="Group 170">
                              <g id="Group_169" data-name="Group 169">
                                <g id="Group_168" data-name="Group 168">
                                  <g id="Group_167" data-name="Group 167">
                                    <path id="Path_70" data-name="Path 70" d="M288.2,450.534c-.083.2-1.02-.086-2.169.014-1.151.076-2.04.5-2.148.315-.121-.154.742-.965,2.1-1.063S288.3,450.363,288.2,450.534Z" fill="#263238"/>
                                  </g>
                                </g>
                              </g>
                            </g>
                          </g>
                        </g>
                      </g>
                    </g>
                  </g>
                </g>
              </g>
            </g>
          </g>
        </g>
        <g id="Group_184" data-name="Group 184">
          <g id="Group_183" data-name="Group 183">
            <g id="Group_182" data-name="Group 182">
              <g id="Group_181" data-name="Group 181">
                <path id="Path_71" data-name="Path 71" d="M288.436,457.369a3.06,3.06,0,0,0,.09-1.269,7.04,7.04,0,0,0-1.109-3.274,6.443,6.443,0,0,0-1.638-1.724,1.42,1.42,0,0,0-1.414-.248,1.6,1.6,0,0,0-.825,1.368,5.492,5.492,0,0,0,3.68,4.859,5.25,5.25,0,0,0,5.657-1.68,3.819,3.819,0,0,0,.751-1.282,1.382,1.382,0,0,0,.006-.831.988.988,0,0,0-.57-.6,1.775,1.775,0,0,0-1.3.129,7.789,7.789,0,0,0-.975.556,8.735,8.735,0,0,0-2.394,2.369,3.266,3.266,0,0,0-.577,1.113,12.091,12.091,0,0,1,3.188-3.1c.561-.322,1.295-.784,1.888-.578.259.107.362.412.238.776a3.316,3.316,0,0,1-.658,1.058,4.757,4.757,0,0,1-5.064,1.469,4.988,4.988,0,0,1-3.316-4.221,1.037,1.037,0,0,1,.493-.9.956.956,0,0,1,.933.185,6.132,6.132,0,0,1,1.559,1.542,7.336,7.336,0,0,1,1.222,3.042C288.411,456.915,288.386,457.366,288.436,457.369Z" fill="#263238"/>
              </g>
            </g>
          </g>
        </g>
        <g id="Group_191" data-name="Group 191">
          <g id="Group_190" data-name="Group 190">
            <g id="Group_189" data-name="Group 189">
              <g id="Group_188" data-name="Group 188">
                <g id="Group_187" data-name="Group 187">
                  <g id="Group_186" data-name="Group 186">
                    <g id="Group_185" data-name="Group 185">
                      <path id="Path_72" data-name="Path 72" d="M254.714,451.094l.709,5.343-.474,12.054-15.7.383-.559-12.437,1.786-7.388Z" fill="#455a64"/>
                    </g>
                  </g>
                </g>
              </g>
            </g>
          </g>
        </g>
        <g id="Group_199" data-name="Group 199">
          <g id="Group_198" data-name="Group 198">
            <g id="Group_197" data-name="Group 197">
              <g id="Group_196" data-name="Group 196">
                <g id="Group_195" data-name="Group 195">
                  <g id="Group_194" data-name="Group 194">
                    <g id="Group_193" data-name="Group 193">
                      <g id="Group_192" data-name="Group 192">
                        <path id="Path_73" data-name="Path 73" d="M247.187,467.583c-.1.005.13-3.683.5-8.235s.755-8.248.851-8.253-.131,3.681-.505,8.236S247.282,467.578,247.187,467.583Z" fill="#263238"/>
                      </g>
                    </g>
                  </g>
                </g>
              </g>
            </g>
          </g>
        </g>
        <g id="Group_206" data-name="Group 206">
          <g id="Group_205" data-name="Group 205">
            <g id="Group_204" data-name="Group 204">
              <g id="Group_203" data-name="Group 203">
                <g id="Group_202" data-name="Group 202">
                  <g id="Group_201" data-name="Group 201">
                    <g id="Group_200" data-name="Group 200">
                      <path id="Path_74" data-name="Path 74" d="M255.012,466.484l-15.864.184v2.206l15.874-.019Z" fill="#263238"/>
                    </g>
                  </g>
                </g>
              </g>
            </g>
          </g>
        </g>
        <g id="Group_214" data-name="Group 214">
          <g id="Group_213" data-name="Group 213">
            <g id="Group_212" data-name="Group 212">
              <g id="Group_211" data-name="Group 211">
                <g id="Group_210" data-name="Group 210">
                  <g id="Group_209" data-name="Group 209">
                    <g id="Group_208" data-name="Group 208">
                      <g id="Group_207" data-name="Group 207">
                        <path id="Path_75" data-name="Path 75" d="M239.188,459.554a2.111,2.111,0,0,1,.4-.636,10.889,10.889,0,0,1,1.4-1.5,10.647,10.647,0,0,1,2.536-1.7,8.358,8.358,0,0,1,9.784,1.81,7.165,7.165,0,0,1,1.15,1.708,2,2,0,0,1,.25.711,16.354,16.354,0,0,0-1.644-2.188,8.362,8.362,0,0,0-5.886-2.414,9.612,9.612,0,0,0-5.972,2.331C239.893,458.748,239.254,459.608,239.188,459.554Z" fill="#263238"/>
                      </g>
                    </g>
                  </g>
                </g>
              </g>
            </g>
          </g>
        </g>
        <g id="Group_264" data-name="Group 264">
          <g id="Group_220" data-name="Group 220">
            <g id="Group_219" data-name="Group 219">
              <g id="Group_218" data-name="Group 218">
                <g id="Group_217" data-name="Group 217">
                  <g id="Group_216" data-name="Group 216">
                    <g id="Group_215" data-name="Group 215">
                      <path id="Path_76" data-name="Path 76" d="M247.119,114.736l-.166,54.286,23.29,1.11.673-13.2s8.272,1.643,10.406-6.04c1.364-4.907,1.023-42.834,1.023-42.834Z" fill="#b78876"/>
                    </g>
                  </g>
                </g>
              </g>
            </g>
          </g>
          <g id="Group_226" data-name="Group 226">
            <g id="Group_225" data-name="Group 225">
              <g id="Group_224" data-name="Group 224">
                <g id="Group_223" data-name="Group 223">
                  <g id="Group_222" data-name="Group 222">
                    <g id="Group_221" data-name="Group 221">
                      <path id="Path_77" data-name="Path 77" d="M285.41,111.877c-3.669,1.05-4.465,7.046-4.465,7.046l-5.754,12.708c-2.931-2.295-6.867-2.163-7.612,2.988-.539,3.722,4.089,4.474,4.089,4.474-2.694,4.585-4.521,8.294-8.444,12.654-4.245,4.72-6.623,5.2-11.228,5.273h-5.077s-2.485-8.067-7.087-28.242c-5.106-22.383,21.361-19.5,26.267-25.212C274.09,94.261,296.974,108.567,285.41,111.877Z" fill="#263238"/>
                    </g>
                  </g>
                </g>
              </g>
            </g>
          </g>
          <g id="Group_227" data-name="Group 227">
            <path id="Path_78" data-name="Path 78" d="M291.874,107.015a5.081,5.081,0,0,0-5.07-4.225,3.158,3.158,0,0,0-.659-4.017,5.16,5.16,0,0,0-4.194-1.023,15.268,15.268,0,0,0-4.18,1.5,7.056,7.056,0,0,0-2.7-3.572,8.129,8.129,0,0,0-4.493-1.114c-7.147,0-10.915,4.9-14.748,9.882a5.991,5.991,0,0,1-2.318,2.2,6.292,6.292,0,0,1-2.159.242,15.538,15.538,0,0,0-13.214,8.217c-2.5,4.835-4.37,16.026,2.1,22.963l3.9,8.713,37.332-29.58c.265.138,2.606,1.279,4.406.332,4.47-2.353,2.6-6.277,2.6-6.277C288.838,111.074,292.253,109.4,291.874,107.015Z" fill="#263238"/>
          </g>
          <g id="Group_231" data-name="Group 231">
            <g id="Group_230" data-name="Group 230">
              <g id="Group_229" data-name="Group 229">
                <g id="Group_228" data-name="Group 228">
                  <path id="Path_79" data-name="Path 79" d="M257.32,136.108a10.96,10.96,0,0,1-1.78,7.9c-.156-.078.591-1.741,1.071-3.911C257.107,137.935,257.146,136.112,257.32,136.108Z" fill="#455a64"/>
                </g>
              </g>
            </g>
          </g>
          <g id="Group_235" data-name="Group 235">
            <g id="Group_234" data-name="Group 234">
              <g id="Group_233" data-name="Group 233">
                <g id="Group_232" data-name="Group 232">
                  <path id="Path_80" data-name="Path 80" d="M260.136,133.444a9.892,9.892,0,0,1-.216,3.968,9.894,9.894,0,0,1-1.229,3.78,21.156,21.156,0,0,1,.649-3.888A21.26,21.26,0,0,1,260.136,133.444Z" fill="#455a64"/>
                </g>
              </g>
            </g>
          </g>
          <g id="Group_239" data-name="Group 239">
            <g id="Group_238" data-name="Group 238">
              <g id="Group_237" data-name="Group 237">
                <g id="Group_236" data-name="Group 236">
                  <path id="Path_81" data-name="Path 81" d="M268.2,124.485c.056.078-.6.558-1.441,1.54a14.913,14.913,0,0,0-2.51,4.331,36.521,36.521,0,0,0-1.391,4.883,8.21,8.21,0,0,1-.577,2.053,7.32,7.32,0,0,1,.167-2.131,23.925,23.925,0,0,1,1.251-5.017,12.651,12.651,0,0,1,2.754-4.4A4.411,4.411,0,0,1,268.2,124.485Z" fill="#455a64"/>
                </g>
              </g>
            </g>
          </g>
          <g id="Group_243" data-name="Group 243">
            <g id="Group_242" data-name="Group 242">
              <g id="Group_241" data-name="Group 241">
                <g id="Group_240" data-name="Group 240">
                  <path id="Path_82" data-name="Path 82" d="M271.464,118.385a3.014,3.014,0,0,1,.452,1.469,9.772,9.772,0,0,1-1.772,7.071c-.573.763-1.04,1.13-1.091,1.082-.146-.112,1.43-1.865,2.089-4.59C271.846,120.7,271.284,118.415,271.464,118.385Z" fill="#455a64"/>
                </g>
              </g>
            </g>
          </g>
          <g id="Group_247" data-name="Group 247">
            <g id="Group_246" data-name="Group 246">
              <g id="Group_245" data-name="Group 245">
                <g id="Group_244" data-name="Group 244">
                  <path id="Path_83" data-name="Path 83" d="M243.668,131.943c-.079.143-.793-.1-1.593-.552s-1.384-.924-1.3-1.067.793.1,1.593.552S243.748,131.8,243.668,131.943Z" fill="#455a64"/>
                </g>
              </g>
            </g>
          </g>
          <g id="Group_251" data-name="Group 251">
            <g id="Group_250" data-name="Group 250">
              <g id="Group_249" data-name="Group 249">
                <g id="Group_248" data-name="Group 248">
                  <path id="Path_84" data-name="Path 84" d="M254.92,126.147c.154.023.059,1.173-.665,2.362s-1.689,1.813-1.781,1.688c-.11-.13.622-.9,1.276-1.993S254.754,126.11,254.92,126.147Z" fill="#455a64"/>
                </g>
              </g>
            </g>
          </g>
          <g id="Group_255" data-name="Group 255">
            <g id="Group_254" data-name="Group 254">
              <g id="Group_253" data-name="Group 253">
                <g id="Group_252" data-name="Group 252">
                  <path id="Path_85" data-name="Path 85" d="M258.38,124.289a4.659,4.659,0,0,1-1.036,2.822c-.933,1.417-2.108,2.177-2.2,2.052-.11-.132.833-1.047,1.706-2.378A24.156,24.156,0,0,1,258.38,124.289Z" fill="#455a64"/>
                </g>
              </g>
            </g>
          </g>
          <g id="Group_259" data-name="Group 259">
            <g id="Group_258" data-name="Group 258">
              <g id="Group_257" data-name="Group 257">
                <g id="Group_256" data-name="Group 256">
                  <path id="Path_86" data-name="Path 86" d="M275.578,101.554c-.041.047-.437-.332-1.277-.81a8.617,8.617,0,0,0-3.9-1.009,10.461,10.461,0,0,0-5.725,1.539,14.186,14.186,0,0,0-4.877,5.432,24.392,24.392,0,0,0-1.979,5.09l-.093.341-.313-.164a11.591,11.591,0,0,0-5.2-1.329,12.283,12.283,0,0,0-4.23.638,18,18,0,0,0-3.454,1.728,3.6,3.6,0,0,1,.779-.691,10.788,10.788,0,0,1,2.555-1.371,12.1,12.1,0,0,1,4.355-.788,11.841,11.841,0,0,1,5.457,1.314l-.406.177a23.968,23.968,0,0,1,2.006-5.225,14.4,14.4,0,0,1,5.114-5.617,10.634,10.634,0,0,1,6.025-1.49,8.291,8.291,0,0,1,4,1.228,6.069,6.069,0,0,1,.895.71C275.5,101.438,275.592,101.539,275.578,101.554Z" fill="#455a64"/>
                </g>
              </g>
            </g>
          </g>
          <g id="Group_263" data-name="Group 263">
            <g id="Group_262" data-name="Group 262">
              <g id="Group_261" data-name="Group 261">
                <g id="Group_260" data-name="Group 260">
                  <path id="Path_87" data-name="Path 87" d="M287.825,104.508c-.041-.01.648-.174,1.337.606a2.319,2.319,0,0,1,.536,1.7,2.645,2.645,0,0,1-1.354,1.934,3.839,3.839,0,0,1-2.829.389,8.2,8.2,0,0,1-2.919-1.415,28.936,28.936,0,0,0-2.855-1.957,11.91,11.91,0,0,0-3.441-1.209,14.539,14.539,0,0,0-7.022.481,19.249,19.249,0,0,0-5.191,2.638,53.021,53.021,0,0,0-4.143,3.507,5.916,5.916,0,0,1,.921-1.148,22.453,22.453,0,0,1,2.977-2.7,18.642,18.642,0,0,1,5.268-2.818,14.729,14.729,0,0,1,7.3-.544,12.24,12.24,0,0,1,3.61,1.283,27.459,27.459,0,0,1,2.892,2.02,7.855,7.855,0,0,0,2.713,1.381,3.425,3.425,0,0,0,2.512-.274,2.311,2.311,0,0,0,1.234-1.613,2.115,2.115,0,0,0-.389-1.517A2.05,2.05,0,0,0,287.825,104.508Z" fill="#455a64"/>
                </g>
              </g>
            </g>
          </g>
        </g>
        <g id="Group_265" data-name="Group 265">
          <path id="Path_88" data-name="Path 88" d="M396.331,146.159c-.879-.781-12.74,4.2-12.74,4.2s-8.849,6.941-12.491,11.042l-2.25,1.871-33.657,26.174-41.4-17.223-8.982,23.1s46.478,18.5,53.559,15.334c7.7-3.442,36.345-33.426,36.412-33.529h0l4.137-3.986s2.189-.043,3.848-.141,6.519-3.327,6.519-3.327a9.453,9.453,0,0,0,.942-2.831,1.812,1.812,0,0,0-.9-2.056,6.4,6.4,0,0,0,.084-2.336c-.189-1.321-1.954-2.854-1.954-2.854a4.162,4.162,0,0,0,1.106-2.091c.41-1.523-1.562-2.96-1.562-2.96s6.882-4.681,8.554-5.5S397.209,146.939,396.331,146.159Z" fill="#b78876"/>
        </g>
        <g id="Group_271" data-name="Group 271">
          <g id="Group_266" data-name="Group 266">
            <path id="Path_89" data-name="Path 89" d="M299.88,382.692c.138-1.52.214-2.688.214-3.42l4.675-74.633s-3.93-21.8-5.788-27.579l-16.713-6.469-22.263,8.672-.239-2.9L226.973,287.7s-.849,22.372,0,29.182c.272,2.187,1.131,7.839,2.169,14.5h0s1.056,14.472,1.274,15.28c.794,2.95.978,10.176.978,17.417,0,9.2.5,20.151,1.074,25.357s.852,62.439.852,62.439h24.2l3.107-91.166c.521-9.77,1.3-24.71,1.806-35.518l5.684,33.66c0,1.235,3.457,20.48,3.457,20.48a181.178,181.178,0,0,0-1.483,18.261c-.4,16.967-2.393,54.283-2.393,54.283h23.687s7.113-53.887,8.5-69.179h0Z" fill="#263238"/>
          </g>
          <g id="Group_267" data-name="Group 267">
            <path id="Path_90" data-name="Path 90" d="M303.957,300.166A9.116,9.116,0,0,1,301.774,299a30.311,30.311,0,0,1-8.543-8.265A9.115,9.115,0,0,1,292,288.594a16.87,16.87,0,0,1,1.526,1.93,40.21,40.21,0,0,0,8.454,8.179A16.924,16.924,0,0,1,303.957,300.166Z" fill="#455a64"/>
          </g>
          <g id="Group_268" data-name="Group 268">
            <path id="Path_91" data-name="Path 91" d="M261.72,313.729a2.872,2.872,0,0,1-.464-.744c-.274-.492-.625-1.228-1.019-2.155a35.312,35.312,0,0,1-2.683-15.4,23.7,23.7,0,0,1,.23-2.372,2.9,2.9,0,0,1,.185-.857c.083.009-.033,1.245-.054,3.24a42.109,42.109,0,0,0,2.658,15.254C261.268,312.568,261.8,313.692,261.72,313.729Z" fill="#455a64"/>
          </g>
          <g id="Group_270" data-name="Group 270">
            <g id="Group_269" data-name="Group 269">
              <path id="Path_92" data-name="Path 92" d="M265.241,341.83a6.465,6.465,0,0,1-.311-1.3c-.175-.95-.394-2.146-.656-3.572-.526-3.132-1.219-7.254-1.985-11.81-1.338-8.373-2.249-14.073-2.673-16.723a24.667,24.667,0,0,1,1.144,4.833c.577,3.012,1.3,7.185,2.058,11.8s1.4,8.8,1.831,11.837c.194,1.437.357,2.642.487,3.6A6.368,6.368,0,0,1,265.241,341.83Z" fill="#455a64"/>
            </g>
          </g>
        </g>
        <g id="Group_275" data-name="Group 275">
          <g id="Group_272" data-name="Group 272">
            <path id="Path_93" data-name="Path 93" d="M208.134,217.347s-3.2,22.494-3.793,30.376c-.36,4.745,4.459,11.045,8.138,11.506,3.737.468,16.083,1.2,16.083,1.2l1.028-14.107-.321-2.806-3.85-.725,1.16-22.374Z" fill="#b78876"/>
          </g>
          <g id="Group_274" data-name="Group 274">
            <g id="Group_273" data-name="Group 273">
              <path id="Path_94" data-name="Path 94" d="M226.072,221.171a5.292,5.292,0,0,1,.144,1.222c.059.788.109,1.931.137,3.344.064,2.826,0,6.733-.243,11.037s-.585,8.192-.865,11c-.14,1.4-.266,2.54-.366,3.324a5.5,5.5,0,0,1-.208,1.212,5.416,5.416,0,0,1,0-1.23c.053-.9.119-2.016.2-3.337.189-2.935.435-6.765.707-11,.242-4.295.367-8.187.4-11.005.013-1.322.024-2.439.033-3.34A5.521,5.521,0,0,1,226.072,221.171Z" fill="#aa6550"/>
            </g>
          </g>
        </g>
        <g id="Group_277" data-name="Group 277" opacity="0.3">
          <g id="Group_276" data-name="Group 276">
            <path id="Path_95" data-name="Path 95" d="M227.286,288.106c6.3,2.34,13.2,2.537,19.9,1.951s13.3-1.924,19.995-2.559a95.9,95.9,0,0,1,30.291,1.961,5.426,5.426,0,0,0,2.135.2,1.789,1.789,0,0,0,1.516-1.34c.173-1.118-1.051-1.9-2.1-2.337a89.321,89.321,0,0,0-71.928,1.608"/>
          </g>
        </g>
        <g id="Group_283" data-name="Group 283">
          <g id="Group_278" data-name="Group 278">
            <path id="Path_96" data-name="Path 96" d="M323.746,182.441l-35.515-17.683a115.774,115.774,0,0,0-16.881-.737H247.843s-28.488,8.4-33.189,16.146l-12.21,36.6,24.135,3.646h0l3.011,26.3s-2.995,30.449-2.995,34.874a32.526,32.526,0,0,0,.378,6.115s48.293-7.343,60.184-3.471,15.107,3.471,15.107,3.471-.995-12.639-1.876-19.971l-2.757-36.693L295.6,203.019l22.349,6.84Z" fill="#6fbabd"/>
          </g>
          <g id="Group_279" data-name="Group 279">
            <path id="Path_97" data-name="Path 97" d="M226.358,220.7c-.089.01-.325-1.515-.861-3.947a67.081,67.081,0,0,0-2.794-9.337,75.21,75.21,0,0,0-4.143-8.916l-1.458-2.624a4.4,4.4,0,0,1-.494-.987,4.529,4.529,0,0,1,.679.891c.41.588.966,1.461,1.617,2.557a59.447,59.447,0,0,1,4.316,8.914,53.757,53.757,0,0,1,2.658,9.437c.219,1.232.364,2.233.427,2.928A4.152,4.152,0,0,1,226.358,220.7Z" fill="#6fbabd"/>
          </g>
          <g id="Group_280" data-name="Group 280">
            <path id="Path_98" data-name="Path 98" d="M271.909,231.094a1.876,1.876,0,0,1-.125.483l-.453,1.353c-.2.588-.451,1.3-.783,2.117s-.677,1.758-1.138,2.766c-.869,2.04-2.026,4.416-3.423,6.995a86.884,86.884,0,0,1-10.921,15.607c-1.944,2.2-3.781,4.1-5.4,5.613-.789.779-1.553,1.429-2.208,2.017s-1.236,1.074-1.721,1.461l-1.116.888a1.8,1.8,0,0,1-.411.283c-.011-.014.108-.138.345-.362l1.052-.96c.464-.409,1.027-.913,1.659-1.522s1.379-1.273,2.149-2.065c1.579-1.543,3.38-3.46,5.295-5.662,1.892-2.22,3.887-4.735,5.826-7.488,1.922-2.765,3.6-5.5,5.038-8.038,1.412-2.553,2.6-4.9,3.5-6.914.48-.995.852-1.922,1.2-2.726s.637-1.505.862-2.08l.542-1.318A1.829,1.829,0,0,1,271.909,231.094Z" fill="#6fbabd"/>
          </g>
          <g id="Group_282" data-name="Group 282">
            <g id="Group_281" data-name="Group 281">
              <path id="Path_99" data-name="Path 99" d="M288.318,167.183a11.475,11.475,0,0,0-1.872,4.457,15.579,15.579,0,0,0,.034,5.249,61.856,61.856,0,0,0,1.5,6.341c1.226,4.476,2.524,8.473,3.508,11.352l1.178,3.406a6.385,6.385,0,0,1,.383,1.269,6.148,6.148,0,0,1-.578-1.194c-.336-.784-.8-1.927-1.34-3.353-1.078-2.852-2.438-6.846-3.668-11.338a55.381,55.381,0,0,1-1.472-6.411,15.22,15.22,0,0,1,.084-5.4,9.78,9.78,0,0,1,1.374-3.371A3.767,3.767,0,0,1,288.318,167.183Z" fill="#6fbabd"/>
            </g>
          </g>
        </g>
        <g id="Group_285" data-name="Group 285">
          <g id="Group_284" data-name="Group 284">
            <path id="Path_100" data-name="Path 100" d="M221.3,205.713A5.006,5.006,0,0,1,219.4,207a9.552,9.552,0,0,1-10.449-1.59,5.017,5.017,0,0,1-1.425-1.79c.071-.055.587.651,1.663,1.509a10.035,10.035,0,0,0,10.067,1.532C220.543,206.16,221.246,205.64,221.3,205.713Z" fill="#fff"/>
          </g>
        </g>
        <g id="Group_287" data-name="Group 287">
          <g id="Group_286" data-name="Group 286">
            <path id="Path_101" data-name="Path 101" d="M289.374,189.2a4.817,4.817,0,0,1-.3.769c-.215.5-.558,1.218-1.048,2.122A28.979,28.979,0,0,1,282.746,199a23.869,23.869,0,0,1-11.271,6.134,21.05,21.05,0,0,1-7.644.329,22.536,22.536,0,0,1-7.735-2.75c-4.911-2.743-9.056-6.213-13.6-7.871a21.338,21.338,0,0,0-12.537-.692,22.336,22.336,0,0,0-7.79,3.571c-1.64,1.216-2.408,2.062-2.454,2.014a15.375,15.375,0,0,1,2.333-2.176,21.935,21.935,0,0,1,20.617-3.167c4.649,1.675,8.834,5.164,13.679,7.865a22.186,22.186,0,0,0,7.558,2.7,20.714,20.714,0,0,0,7.467-.292,23.758,23.758,0,0,0,11.123-5.934,30.339,30.339,0,0,0,5.357-6.739c.514-.883.885-1.586,1.129-2.067A4.972,4.972,0,0,1,289.374,189.2Z" fill="#fff"/>
          </g>
        </g>
        <g id="Group_289" data-name="Group 289">
          <g id="Group_288" data-name="Group 288">
            <path id="Path_102" data-name="Path 102" d="M311.607,176.375a4.71,4.71,0,0,1,.463,1.151,13.909,13.909,0,0,1,.576,3.336,15.457,15.457,0,0,1-.557,5,15.2,15.2,0,0,1-2.81,5.484,39.883,39.883,0,0,1-4.458,4.215,11.943,11.943,0,0,0-3.025,3.811,6.491,6.491,0,0,0-.663,3.182c.06.777.225,1.192.178,1.208-.017.006-.067-.092-.148-.288a3.828,3.828,0,0,1-.231-.9,6.276,6.276,0,0,1,.528-3.354,11.836,11.836,0,0,1,3.036-4.014,43.528,43.528,0,0,0,4.378-4.191,15.746,15.746,0,0,0,3.4-10.14A23.513,23.513,0,0,0,311.607,176.375Z" fill="#fff"/>
          </g>
        </g>
        <g id="Group_291" data-name="Group 291">
          <g id="Group_290" data-name="Group 290">
            <path id="Path_103" data-name="Path 103" d="M253.844,260.683a4.227,4.227,0,0,1-1.042.362,22.18,22.18,0,0,1-2.943.629,10.38,10.38,0,0,1-4.488-.262,6.688,6.688,0,0,1-2.354-1.325,20.11,20.11,0,0,1-1.92-2.1,9.956,9.956,0,0,0-2.009-1.854,9.416,9.416,0,0,0-2.292-1.1,10.083,10.083,0,0,0-4.288-.412,9.176,9.176,0,0,0-2.822.8,7.034,7.034,0,0,1-1,.458,3.328,3.328,0,0,1,.9-.639,8.259,8.259,0,0,1,2.862-.979,10.027,10.027,0,0,1,4.483.318,9.66,9.66,0,0,1,2.431,1.132,10.229,10.229,0,0,1,2.122,1.94,20.827,20.827,0,0,0,1.862,2.058,6.3,6.3,0,0,0,2.166,1.251,10.463,10.463,0,0,0,4.3.352C252.3,261.021,253.823,260.585,253.844,260.683Z" fill="#fff"/>
          </g>
        </g>
        <g id="Group_293" data-name="Group 293">
          <g id="Group_292" data-name="Group 292">
            <path id="Path_104" data-name="Path 104" d="M299.83,258.546c.01.014-.1.106-.316.27a9.022,9.022,0,0,1-.986.666,14.844,14.844,0,0,1-4.042,1.691,17.039,17.039,0,0,1-6.489.375,15.956,15.956,0,0,1-7.377-2.959,74.078,74.078,0,0,1-5.9-5.3,19,19,0,0,0-5.236-3.608,10.041,10.041,0,0,0-4.159-.921c-1.016.017-1.572.17-1.583.118a1.225,1.225,0,0,1,.395-.135,5.866,5.866,0,0,1,1.18-.185,9.623,9.623,0,0,1,4.31.783,18.674,18.674,0,0,1,5.415,3.592c1.829,1.619,3.648,3.595,5.884,5.239a15.791,15.791,0,0,0,7.136,2.9,17.246,17.246,0,0,0,6.335-.258,16.38,16.38,0,0,0,4.03-1.509A15.945,15.945,0,0,1,299.83,258.546Z" fill="#fff"/>
          </g>
        </g>
      </g>
    </g>
    <g id="Magnifying_Glass" data-name="Magnifying Glass">
      <g id="Group_318" data-name="Group 318">
        <g id="Group_313" data-name="Group 313">
          <g id="Group_303" data-name="Group 303">
            <g id="Group_298" data-name="Group 298">
              <g id="Group_297" data-name="Group 297">
                <g id="Group_296" data-name="Group 296">
                  <g id="Group_295" data-name="Group 295">
                    <path id="Path_105" data-name="Path 105" d="M384.834,116.061a51.125,51.125,0,1,1,66.827-70.8h0a51.118,51.118,0,0,1-66.827,70.8Zm42.613-89.145a47.67,47.67,0,1,0,21.215,20A47.685,47.685,0,0,0,427.447,26.916Z" fill="#263238"/>
                  </g>
                </g>
              </g>
            </g>
            <g id="Group_302" data-name="Group 302">
              <g id="Group_301" data-name="Group 301">
                <g id="Group_300" data-name="Group 300">
                  <g id="Group_299" data-name="Group 299">
                    <path id="Path_106" data-name="Path 106" d="M471.107,171.949h0a6.356,6.356,0,0,1-8.745-2.072l-33.436-54.182a1.091,1.091,0,0,1,.355-1.5l7.133-4.4a1.092,1.092,0,0,1,1.482.325l35.167,52.9A6.355,6.355,0,0,1,471.107,171.949Z" fill="#263238"/>
                  </g>
                </g>
              </g>
            </g>
          </g>
          <g id="Group_312" data-name="Group 312">
            <g id="Group_307" data-name="Group 307">
              <g id="Group_306" data-name="Group 306">
                <g id="Group_305" data-name="Group 305">
                  <g id="Group_304" data-name="Group 304">
                    <path id="Path_107" data-name="Path 107" d="M386.063,113.48a51.125,51.125,0,1,1,66.828-70.8h0a51.118,51.118,0,0,1-66.828,70.8Zm42.613-89.144a47.668,47.668,0,1,0,21.215,20A47.679,47.679,0,0,0,428.676,24.336Z" fill="#455a64"/>
                  </g>
                </g>
              </g>
            </g>
            <g id="Group_311" data-name="Group 311">
              <g id="Group_310" data-name="Group 310">
                <g id="Group_309" data-name="Group 309">
                  <g id="Group_308" data-name="Group 308">
                    <path id="Rectangle_7" data-name="Rectangle 7" d="M0,0H10.528a0,0,0,0,1,0,0V67.708a4.959,4.959,0,0,1-4.959,4.959H4.961A4.961,4.961,0,0,1,0,67.707V0A0,0,0,0,1,0,0Z" transform="translate(429.586 112.181) rotate(-31.669)" fill="#455a64"/>
                  </g>
                </g>
              </g>
            </g>
          </g>
        </g>
        <g id="Group_317" data-name="Group 317">
          <g id="Group_316" data-name="Group 316">
            <g id="Group_315" data-name="Group 315">
              <g id="Group_314" data-name="Group 314">
                <path id="Path_108" data-name="Path 108" d="M369.937,55.219a9.959,9.959,0,0,1,.284-1.578,14.442,14.442,0,0,1,.472-1.824,23.613,23.613,0,0,1,.8-2.366q.256-.648.536-1.351c.19-.469.441-.932.673-1.425a34.707,34.707,0,0,1,1.669-3.052,36.478,36.478,0,0,1,11.041-11.345c1.045-.642,2.022-1.278,3.006-1.752.486-.245.943-.508,1.406-.711l1.336-.573a23.614,23.614,0,0,1,2.344-.862,14.3,14.3,0,0,1,1.809-.521,9.963,9.963,0,0,1,1.571-.328,10.052,10.052,0,0,1-1.519.511,16.859,16.859,0,0,0-1.773.6c-.679.265-1.472.515-2.3.922l-1.31.6c-.453.21-.9.479-1.378.729-.964.483-1.922,1.125-2.947,1.769a37.638,37.638,0,0,0-10.908,11.209c-.616,1.042-1.232,2.016-1.688,2.994-.237.483-.494.938-.692,1.4s-.38.9-.559,1.325c-.384.835-.613,1.634-.859,2.321a16.823,16.823,0,0,0-.548,1.788A10.177,10.177,0,0,1,369.937,55.219Z" fill="#e0e0e0"/>
              </g>
            </g>
          </g>
        </g>
      </g>
    </g>
  </g>
</svg>
